<svg width="203" height="251" viewBox="0 0 203 251" fill="none" xmlns="http://www.w3.org/2000/svg">
<rect width="177" height="224" rx="5" fill="#006691"/>
<path d="M190.171 234.212C191.109 235.9 189.347 237.806 187.591 237.003L159.032 223.939C157.794 223.372 157.472 221.762 158.396 220.762L171.696 206.377C172.62 205.378 174.251 205.573 174.912 206.763L190.171 234.212Z" fill="#006691"/>
<path d="M25.4169 22.592C25.2902 22.592 25.1825 22.554 25.0939 22.478C25.0179 22.3893 24.9799 22.2817 24.9799 22.155V16.588C24.9799 16.4613 25.0179 16.36 25.0939 16.284C25.1825 16.1953 25.2902 16.151 25.4169 16.151H26.2529C26.3795 16.151 26.4809 16.1953 26.5569 16.284C26.6455 16.36 26.6899 16.4613 26.6899 16.588V22.155C26.6899 22.2817 26.6455 22.3893 26.5569 22.478C26.4809 22.554 26.3795 22.592 26.2529 22.592H25.4169ZM29.9473 27C29.8207 27 29.713 26.962 29.6243 26.886C29.5483 26.7973 29.5103 26.6897 29.5103 26.563V25.936C29.5103 25.8093 29.5483 25.708 29.6243 25.632C29.713 25.5433 29.8207 25.499 29.9473 25.499H32.6643C33.7663 25.499 34.577 25.2203 35.0963 24.663C35.6157 24.1057 35.9007 23.295 35.9513 22.231C35.964 22.0537 35.9703 21.832 35.9703 21.566C35.9703 21.3127 35.964 21.0973 35.9513 20.92C35.9133 19.8433 35.6283 19.0327 35.0963 18.488C34.577 17.9307 33.7663 17.652 32.6643 17.652H29.9473C29.8207 17.652 29.713 17.614 29.6243 17.538C29.5483 17.4493 29.5103 17.3417 29.5103 17.215V16.588C29.5103 16.4613 29.5483 16.36 29.6243 16.284C29.713 16.1953 29.8207 16.151 29.9473 16.151H32.7593C34.3807 16.151 35.5777 16.5563 36.3503 17.367C37.123 18.165 37.5347 19.324 37.5853 20.844C37.598 21.0213 37.6043 21.262 37.6043 21.566C37.6043 21.87 37.598 22.117 37.5853 22.307C37.5347 23.827 37.123 24.9923 36.3503 25.803C35.5777 26.601 34.3807 27 32.7593 27H29.9473ZM52.4193 27C52.2926 27 52.1849 26.962 52.0963 26.886C52.0203 26.7973 51.9823 26.6897 51.9823 26.563V20.882C51.9823 18.7033 50.8993 17.614 48.7333 17.614H45.1993C45.0726 17.614 44.9649 17.576 44.8763 17.5C44.8003 17.424 44.7623 17.3227 44.7623 17.196V16.588C44.7623 16.4613 44.8003 16.36 44.8763 16.284C44.9649 16.1953 45.0726 16.151 45.1993 16.151H48.8283C52.0456 16.151 53.6543 17.709 53.6543 20.825V26.563C53.6543 26.6897 53.6163 26.7973 53.5403 26.886C53.4643 26.962 53.3629 27 53.2363 27H52.4193ZM45.1993 27C45.0726 27 44.9649 26.962 44.8763 26.886C44.8003 26.7973 44.7623 26.6897 44.7623 26.563V20.179C44.7623 20.0523 44.8003 19.951 44.8763 19.875C44.9649 19.7863 45.0726 19.742 45.1993 19.742H45.9973C46.1239 19.742 46.2253 19.7863 46.3013 19.875C46.3899 19.951 46.4343 20.0523 46.4343 20.179V26.563C46.4343 26.6897 46.3899 26.7973 46.3013 26.886C46.2253 26.962 46.1239 27 45.9973 27H45.1993ZM61.9034 12.636C62.0681 12.256 62.3467 12.066 62.7394 12.066H63.3664C63.4804 12.066 63.5754 12.1103 63.6514 12.199C63.7401 12.275 63.7844 12.37 63.7844 12.484C63.7844 12.5347 63.7717 12.5917 63.7464 12.655L57.3244 28.026C57.1724 28.406 56.8937 28.596 56.4884 28.596H55.9184C55.8044 28.596 55.7031 28.5517 55.6144 28.463C55.5384 28.387 55.5004 28.292 55.5004 28.178C55.5004 28.1273 55.5131 28.0703 55.5384 28.007L61.9034 12.636ZM71.9036 27C71.777 27 71.6693 26.962 71.5806 26.886C71.5046 26.7973 71.4666 26.6897 71.4666 26.563V20.882C71.4666 18.7033 70.3773 17.614 68.1986 17.614H65.7476C65.621 17.614 65.5133 17.576 65.4246 17.5C65.3486 17.424 65.3106 17.3227 65.3106 17.196V16.588C65.3106 16.4613 65.3486 16.36 65.4246 16.284C65.5133 16.1953 65.621 16.151 65.7476 16.151H68.3126C71.53 16.151 73.1386 17.6963 73.1386 20.787V26.563C73.1386 26.6897 73.0943 26.7973 73.0056 26.886C72.9296 26.962 72.8283 27 72.7016 27H71.9036ZM76.2938 22.592C76.1671 22.592 76.0595 22.554 75.9708 22.478C75.8948 22.3893 75.8568 22.2817 75.8568 22.155V16.588C75.8568 16.4613 75.8948 16.36 75.9708 16.284C76.0595 16.1953 76.1671 16.151 76.2938 16.151H77.1298C77.2565 16.151 77.3578 16.1953 77.4338 16.284C77.5225 16.36 77.5668 16.4613 77.5668 16.588V22.155C77.5668 22.2817 77.5225 22.3893 77.4338 22.478C77.3578 22.554 77.2565 22.592 77.1298 22.592H76.2938ZM88.0443 27C87.9176 27 87.8099 26.962 87.7213 26.886C87.6453 26.7973 87.6073 26.6897 87.6073 26.563V20.882C87.6073 18.7033 86.5243 17.614 84.3583 17.614H80.8243C80.6976 17.614 80.5899 17.576 80.5013 17.5C80.4253 17.424 80.3873 17.3227 80.3873 17.196V16.588C80.3873 16.4613 80.4253 16.36 80.5013 16.284C80.5899 16.1953 80.6976 16.151 80.8243 16.151H84.4533C87.6706 16.151 89.2793 17.709 89.2793 20.825V26.563C89.2793 26.6897 89.2413 26.7973 89.1653 26.886C89.0893 26.962 88.9879 27 88.8613 27H88.0443ZM80.8243 27C80.6976 27 80.5899 26.962 80.5013 26.886C80.4253 26.7973 80.3873 26.6897 80.3873 26.563V20.179C80.3873 20.0523 80.4253 19.951 80.5013 19.875C80.5899 19.7863 80.6976 19.742 80.8243 19.742H81.6223C81.7489 19.742 81.8503 19.7863 81.9263 19.875C82.0149 19.951 82.0593 20.0523 82.0593 20.179V26.563C82.0593 26.6897 82.0149 26.7973 81.9263 26.886C81.8503 26.962 81.7489 27 81.6223 27H80.8243ZM99.5252 18.45C99.5252 19.438 99.3225 20.2803 98.9172 20.977C98.5245 21.661 97.9355 22.1867 97.1502 22.554L99.1262 25.404C99.2782 25.594 99.3542 25.784 99.3542 25.974V26.563C99.3542 26.6897 99.3098 26.7973 99.2212 26.886C99.1452 26.962 99.0438 27 98.9172 27H92.0772C91.9505 27 91.8428 26.962 91.7542 26.886C91.6782 26.7973 91.6402 26.6897 91.6402 26.563V25.955C91.6402 25.8157 91.6782 25.708 91.7542 25.632C91.8428 25.556 91.9505 25.518 92.0772 25.518H97.2452L91.2982 16.892C91.1968 16.7527 91.1462 16.6323 91.1462 16.531C91.1462 16.4297 91.1842 16.341 91.2602 16.265C91.3488 16.189 91.4438 16.151 91.5452 16.151H92.4002C92.6028 16.151 92.7738 16.2523 92.9132 16.455L96.3142 21.357C97.3908 20.8503 97.9292 19.8117 97.9292 18.241V16.588C97.9292 16.4487 97.9672 16.341 98.0432 16.265C98.1318 16.189 98.2395 16.151 98.3662 16.151H99.1072C99.2338 16.151 99.3352 16.1953 99.4112 16.284C99.4872 16.36 99.5252 16.4613 99.5252 16.588V18.45ZM107.035 16.151C107.82 16.151 108.517 16.341 109.125 16.721C109.746 17.0883 110.227 17.6203 110.569 18.317C110.924 19.0137 111.101 19.837 111.101 20.787V26.563C111.101 26.6897 111.057 26.7973 110.968 26.886C110.892 26.962 110.791 27 110.664 27H105.762C105.635 27 105.528 26.962 105.439 26.886C105.363 26.7973 105.325 26.6897 105.325 26.563V25.955C105.325 25.8283 105.363 25.727 105.439 25.651C105.528 25.5623 105.635 25.518 105.762 25.518H109.429V20.901C109.429 19.9383 109.182 19.1593 108.688 18.564C108.207 17.956 107.592 17.652 106.845 17.652H104.85L103.368 26.544C103.355 26.6707 103.305 26.7783 103.216 26.867C103.127 26.9557 103.02 27 102.893 27H102.095C101.968 27 101.867 26.9557 101.791 26.867C101.728 26.7783 101.702 26.6707 101.715 26.544L103.235 17.652H102.266C102.139 17.652 102.032 17.614 101.943 17.538C101.867 17.4493 101.829 17.3417 101.829 17.215V16.588C101.829 16.4613 101.867 16.36 101.943 16.284C102.032 16.1953 102.139 16.151 102.266 16.151H107.035ZM118.895 22.592C118.769 22.592 118.661 22.554 118.572 22.478C118.496 22.3893 118.458 22.2817 118.458 22.155V16.588C118.458 16.4613 118.496 16.36 118.572 16.284C118.661 16.1953 118.769 16.151 118.895 16.151H119.731C119.858 16.151 119.959 16.1953 120.035 16.284C120.124 16.36 120.168 16.4613 120.168 16.588V22.155C120.168 22.2817 120.124 22.3893 120.035 22.478C119.959 22.554 119.858 22.592 119.731 22.592H118.895ZM128.29 26.563C128.303 26.6897 128.265 26.7973 128.176 26.886C128.1 26.962 127.992 27 127.853 27H127.017H122.799C122.672 27 122.565 26.962 122.476 26.886C122.4 26.7973 122.362 26.6897 122.362 26.563V25.955C122.362 25.8283 122.4 25.727 122.476 25.651C122.565 25.5623 122.672 25.518 122.799 25.518H126.523L126.219 20.692C126.168 19.8813 126.105 19.2797 126.029 18.887C125.966 18.4943 125.814 18.1777 125.573 17.937C125.332 17.6963 124.952 17.576 124.433 17.576H123.673C123.546 17.576 123.439 17.538 123.35 17.462C123.274 17.386 123.236 17.2847 123.236 17.158V16.55C123.236 16.4233 123.274 16.322 123.35 16.246C123.439 16.1573 123.546 16.113 123.673 16.113H124.452C125.364 16.113 126.061 16.2967 126.542 16.664C127.036 17.0187 127.372 17.5127 127.549 18.146C127.739 18.7793 127.866 19.609 127.929 20.635L128.29 26.563ZM136.009 26.563C136.021 26.6897 135.983 26.7973 135.895 26.886C135.819 26.962 135.711 27 135.572 27H134.736H130.518C130.391 27 130.283 26.962 130.195 26.886C130.119 26.7973 130.081 26.6897 130.081 26.563V25.955C130.081 25.8283 130.119 25.727 130.195 25.651C130.283 25.5623 130.391 25.518 130.518 25.518H134.242L133.938 20.692C133.887 19.8813 133.824 19.2797 133.748 18.887C133.684 18.4943 133.532 18.1777 133.292 17.937C133.051 17.6963 132.671 17.576 132.152 17.576H131.392C131.265 17.576 131.157 17.538 131.069 17.462C130.993 17.386 130.955 17.2847 130.955 17.158V16.55C130.955 16.4233 130.993 16.322 131.069 16.246C131.157 16.1573 131.265 16.113 131.392 16.113H132.171C133.083 16.113 133.779 16.2967 134.261 16.664C134.755 17.0187 135.09 17.5127 135.268 18.146C135.458 18.7793 135.584 19.609 135.648 20.635L136.009 26.563ZM146.083 27C145.957 27 145.849 26.962 145.76 26.886C145.684 26.7973 145.646 26.6897 145.646 26.563V20.882C145.646 18.7033 144.563 17.614 142.397 17.614H138.863C138.737 17.614 138.629 17.576 138.54 17.5C138.464 17.424 138.426 17.3227 138.426 17.196V16.588C138.426 16.4613 138.464 16.36 138.54 16.284C138.629 16.1953 138.737 16.151 138.863 16.151H142.492C145.71 16.151 147.318 17.709 147.318 20.825V26.563C147.318 26.6897 147.28 26.7973 147.204 26.886C147.128 26.962 147.027 27 146.9 27H146.083ZM138.863 27C138.737 27 138.629 26.962 138.54 26.886C138.464 26.7973 138.426 26.6897 138.426 26.563V20.179C138.426 20.0523 138.464 19.951 138.54 19.875C138.629 19.7863 138.737 19.742 138.863 19.742H139.661C139.788 19.742 139.889 19.7863 139.965 19.875C140.054 19.951 140.098 20.0523 140.098 20.179V26.563C140.098 26.6897 140.054 26.7973 139.965 26.886C139.889 26.962 139.788 27 139.661 27H138.863ZM150.999 17.196C150.986 17.3607 150.929 17.4937 150.828 17.595C150.726 17.6837 150.606 17.728 150.467 17.728H150.163C150.023 17.728 149.903 17.6837 149.802 17.595C149.7 17.4937 149.643 17.3607 149.631 17.196L149.289 14.194C149.263 13.9913 149.295 13.8267 149.384 13.7C149.472 13.5733 149.612 13.51 149.802 13.51H150.828C151.018 13.51 151.157 13.5733 151.246 13.7C151.334 13.8267 151.366 13.9913 151.341 14.194L150.999 17.196ZM154.001 17.196C153.988 17.3607 153.931 17.4937 153.83 17.595C153.728 17.6837 153.608 17.728 153.469 17.728H153.165C153.025 17.728 152.905 17.6837 152.804 17.595C152.702 17.4937 152.645 17.3607 152.633 17.196L152.291 14.194C152.265 13.9913 152.297 13.8267 152.386 13.7C152.474 13.5733 152.614 13.51 152.804 13.51H153.83C154.02 13.51 154.159 13.5733 154.248 13.7C154.336 13.8267 154.368 13.9913 154.343 14.194L154.001 17.196ZM20.9081 48.592C20.7814 48.592 20.6737 48.554 20.5851 48.478C20.5091 48.3893 20.4711 48.2817 20.4711 48.155V42.588C20.4711 42.4613 20.5091 42.36 20.5851 42.284C20.6737 42.1953 20.7814 42.151 20.9081 42.151H21.7441C21.8707 42.151 21.9721 42.1953 22.0481 42.284C22.1367 42.36 22.1811 42.4613 22.1811 42.588V48.155C22.1811 48.2817 22.1367 48.3893 22.0481 48.478C21.9721 48.554 21.8707 48.592 21.7441 48.592H20.9081ZM32.7915 42.151C32.9182 42.151 33.0195 42.1953 33.0955 42.284C33.1842 42.36 33.2285 42.4613 33.2285 42.588V43.196C33.2285 43.3227 33.1842 43.424 33.0955 43.5C33.0195 43.576 32.9182 43.614 32.7915 43.614H31.6705C31.4932 43.804 31.3475 44.1017 31.2335 44.507C31.1322 44.9123 31.0815 45.3683 31.0815 45.875V52.582C31.0815 52.7087 31.0372 52.81 30.9485 52.886C30.8599 52.962 30.7522 53 30.6255 53H29.8275C29.7009 53 29.5995 52.962 29.5235 52.886C29.4475 52.81 29.4095 52.7087 29.4095 52.582V45.761C29.4095 45.2417 29.4539 44.7983 29.5425 44.431C29.6312 44.0637 29.7515 43.7913 29.9035 43.614H24.6595C24.5329 43.614 24.4252 43.576 24.3365 43.5C24.2605 43.424 24.2225 43.3227 24.2225 43.196V42.588C24.2225 42.4613 24.2605 42.36 24.3365 42.284C24.4252 42.1953 24.5329 42.151 24.6595 42.151H32.7915ZM39.6247 53.171C39.5994 53.1837 39.555 53.19 39.4917 53.19C39.403 53.19 39.3207 53.1583 39.2447 53.095C39.1814 53.0317 39.1497 52.943 39.1497 52.829V51.993C39.1497 51.8917 39.1877 51.7967 39.2637 51.708C39.3397 51.6067 39.441 51.5307 39.5677 51.48L40.3087 51.195C41.1827 50.8657 41.854 50.3907 42.3227 49.77C42.7914 49.1493 43.0257 48.2373 43.0257 47.034C43.0257 46.1853 42.9244 45.5203 42.7217 45.039C42.519 44.545 42.1834 44.1903 41.7147 43.975C41.2587 43.7597 40.6254 43.652 39.8147 43.652H36.0147C35.888 43.652 35.7804 43.614 35.6917 43.538C35.6157 43.4493 35.5777 43.3417 35.5777 43.215V42.569C35.5777 42.4423 35.6157 42.341 35.6917 42.265C35.7804 42.189 35.888 42.151 36.0147 42.151H40.0617C41.2144 42.151 42.1264 42.3157 42.7977 42.645C43.4817 42.9743 43.9757 43.5 44.2797 44.222C44.5837 44.944 44.7357 45.9067 44.7357 47.11C44.7357 48.7313 44.3367 49.998 43.5387 50.91C42.7407 51.8093 41.702 52.4743 40.4227 52.905L39.6247 53.171ZM36.0147 56.629C35.888 56.629 35.7804 56.5847 35.6917 56.496C35.6157 56.42 35.5777 56.3187 35.5777 56.192V46.179C35.5777 46.0523 35.6157 45.951 35.6917 45.875C35.7804 45.7863 35.888 45.742 36.0147 45.742H36.7937C36.9204 45.742 37.0217 45.7863 37.0977 45.875C37.1864 45.951 37.2307 46.0523 37.2307 46.179V56.192C37.2307 56.3313 37.1927 56.439 37.1167 56.515C37.0407 56.591 36.933 56.629 36.7937 56.629H36.0147ZM48.9351 45.172C48.9478 45.6787 49.0111 46.0777 49.1251 46.369C49.2391 46.6603 49.4291 46.844 49.6951 46.92L50.4171 47.11C50.5185 47.1353 50.5945 47.205 50.6451 47.319C50.7085 47.4203 50.7401 47.547 50.7401 47.699V48.136C50.7401 48.2753 50.6705 48.3767 50.5311 48.44C50.3918 48.5033 50.2398 48.5223 50.0751 48.497L49.3531 48.345C48.0738 48.0663 47.4341 46.9897 47.4341 45.115V42.588C47.4468 42.4487 47.4911 42.341 47.5671 42.265C47.6431 42.189 47.7445 42.151 47.8711 42.151H51.3861C52.7795 42.151 53.8371 42.5627 54.5591 43.386C55.2811 44.1967 55.6611 45.3493 55.6991 46.844C55.7118 46.9707 55.7181 47.2113 55.7181 47.566C55.7181 47.9333 55.7118 48.1803 55.6991 48.307C55.6611 49.8017 55.2811 50.9607 54.5591 51.784C53.8371 52.5947 52.7795 53 51.3861 53H48.1181C47.9915 53 47.8838 52.962 47.7951 52.886C47.7191 52.7973 47.6811 52.6897 47.6811 52.563V51.936C47.6811 51.7967 47.7191 51.689 47.7951 51.613C47.8838 51.537 47.9915 51.499 48.1181 51.499H51.2721C52.1588 51.499 52.8428 51.214 53.3241 50.644C53.8055 50.074 54.0651 49.2697 54.1031 48.231C54.1285 47.9777 54.1411 47.756 54.1411 47.566C54.1411 47.3887 54.1285 47.1733 54.1031 46.92C54.0778 45.8687 53.8245 45.0643 53.3431 44.507C52.8618 43.937 52.1715 43.652 51.2721 43.652H48.9351V45.172ZM63.0418 42.151C63.8271 42.151 64.5238 42.341 65.1318 42.721C65.7524 43.0883 66.2338 43.6203 66.5758 44.317C66.9304 45.0137 67.1078 45.837 67.1078 46.787V52.563C67.1078 52.6897 67.0634 52.7973 66.9748 52.886C66.8988 52.962 66.7974 53 66.6708 53H61.7688C61.6421 53 61.5344 52.962 61.4458 52.886C61.3698 52.7973 61.3318 52.6897 61.3318 52.563V51.955C61.3318 51.8283 61.3698 51.727 61.4458 51.651C61.5344 51.5623 61.6421 51.518 61.7688 51.518H65.4358V46.901C65.4358 45.9383 65.1888 45.1593 64.6948 44.564C64.2134 43.956 63.5991 43.652 62.8518 43.652H60.8568L59.3748 52.544C59.3621 52.6707 59.3114 52.7783 59.2228 52.867C59.1341 52.9557 59.0264 53 58.8998 53H58.1018C57.9751 53 57.8738 52.9557 57.7978 52.867C57.7344 52.7783 57.7091 52.6707 57.7218 52.544L59.2418 43.652H58.2728C58.1461 43.652 58.0384 43.614 57.9498 43.538C57.8738 43.4493 57.8358 43.3417 57.8358 43.215V42.588C57.8358 42.4613 57.8738 42.36 57.9498 42.284C58.0384 42.1953 58.1461 42.151 58.2728 42.151H63.0418ZM76.9079 42.151C78.0606 42.151 78.9726 42.3157 79.6439 42.645C80.3279 42.9743 80.8219 43.5 81.1259 44.222C81.4299 44.944 81.5819 45.9067 81.5819 47.11C81.5819 48.7313 81.1829 49.998 80.3849 50.91C79.5869 51.8093 78.5482 52.4743 77.2689 52.905L76.4709 53.171C76.4456 53.1837 76.4012 53.19 76.3379 53.19C76.2492 53.19 76.1669 53.1583 76.0909 53.095C76.0276 53.0317 75.9959 52.943 75.9959 52.829V51.993C75.9959 51.8917 76.0339 51.7967 76.1099 51.708C76.1859 51.6067 76.2872 51.5307 76.4139 51.48L77.1549 51.195C78.0289 50.8657 78.7002 50.3907 79.1689 49.77C79.6376 49.1493 79.8719 48.2373 79.8719 47.034C79.8719 46.1853 79.7706 45.5203 79.5679 45.039C79.3652 44.545 79.0296 44.1903 78.5609 43.975C78.1049 43.7597 77.4716 43.652 76.6609 43.652H76.0719H76.0149L74.2669 43.633C74.1402 43.633 74.0326 43.595 73.9439 43.519C73.8679 43.443 73.8299 43.3417 73.8299 43.215V39.947C73.8299 39.8203 73.8679 39.719 73.9439 39.643C74.0326 39.5543 74.1402 39.51 74.2669 39.51H75.0269C75.1536 39.51 75.2549 39.5543 75.3309 39.643C75.4069 39.719 75.4449 39.8203 75.4449 39.947V42.151H76.5279H76.9079ZM84.5352 53C84.4085 53 84.3009 52.962 84.2122 52.886C84.1362 52.7973 84.0982 52.6897 84.0982 52.563V42.588C84.0982 42.4613 84.1362 42.36 84.2122 42.284C84.3009 42.1953 84.4085 42.151 84.5352 42.151H85.3712C85.4979 42.151 85.5992 42.1953 85.6752 42.284C85.7639 42.36 85.8082 42.4613 85.8082 42.588V52.563C85.8082 52.6897 85.7639 52.7973 85.6752 52.886C85.5992 52.962 85.4979 53 85.3712 53H84.5352ZM93.6384 42.151C94.4238 42.151 95.1204 42.341 95.7284 42.721C96.3491 43.0883 96.8304 43.6203 97.1724 44.317C97.5271 45.0137 97.7044 45.837 97.7044 46.787V52.563C97.7044 52.6897 97.6601 52.7973 97.5714 52.886C97.4954 52.962 97.3941 53 97.2674 53H92.3654C92.2388 53 92.1311 52.962 92.0424 52.886C91.9664 52.7973 91.9284 52.6897 91.9284 52.563V51.955C91.9284 51.8283 91.9664 51.727 92.0424 51.651C92.1311 51.5623 92.2388 51.518 92.3654 51.518H96.0324V46.901C96.0324 45.9383 95.7854 45.1593 95.2914 44.564C94.8101 43.956 94.1958 43.652 93.4484 43.652H91.4534L89.9714 52.544C89.9588 52.6707 89.9081 52.7783 89.8194 52.867C89.7308 52.9557 89.6231 53 89.4964 53H88.6984C88.5718 53 88.4704 52.9557 88.3944 52.867C88.3311 52.7783 88.3058 52.6707 88.3184 52.544L89.8384 43.652H88.8694C88.7428 43.652 88.6351 43.614 88.5464 43.538C88.4704 43.4493 88.4324 43.3417 88.4324 43.215V42.588C88.4324 42.4613 88.4704 42.36 88.5464 42.284C88.6351 42.1953 88.7428 42.151 88.8694 42.151H93.6384ZM105.499 48.592C105.372 48.592 105.265 48.554 105.176 48.478C105.1 48.3893 105.062 48.2817 105.062 48.155V42.588C105.062 42.4613 105.1 42.36 105.176 42.284C105.265 42.1953 105.372 42.151 105.499 42.151H106.335C106.462 42.151 106.563 42.1953 106.639 42.284C106.728 42.36 106.772 42.4613 106.772 42.588V48.155C106.772 48.2817 106.728 48.3893 106.639 48.478C106.563 48.554 106.462 48.592 106.335 48.592H105.499ZM114.418 42.151C117.636 42.151 119.244 43.6963 119.244 46.787V52.563C119.244 52.6897 119.2 52.7973 119.111 52.886C119.035 52.962 118.934 53 118.807 53H118.009C117.883 53 117.775 52.962 117.686 52.886C117.61 52.7973 117.572 52.6897 117.572 52.563V46.882C117.572 44.7033 116.489 43.614 114.323 43.614H112.936C112.81 44.3487 112.715 44.9883 112.651 45.533C112.601 46.0777 112.575 46.6983 112.575 47.395L112.613 52.563C112.613 52.6897 112.575 52.7973 112.499 52.886C112.423 52.962 112.322 53 112.195 53L109.554 52.962C109.428 52.962 109.32 52.924 109.231 52.848C109.155 52.7593 109.117 52.6517 109.117 52.525V51.955C109.117 51.8283 109.155 51.727 109.231 51.651C109.32 51.5623 109.428 51.518 109.554 51.518L110.998 51.537V47.471C110.998 46.6603 111.017 45.9827 111.055 45.438C111.106 44.8933 111.207 44.2853 111.359 43.614H110.352C110.226 43.614 110.118 43.576 110.029 43.5C109.953 43.424 109.915 43.3227 109.915 43.196V42.588C109.915 42.4613 109.953 42.36 110.029 42.284C110.118 42.1953 110.226 42.151 110.352 42.151H114.418ZM128.254 53C128.128 53 128.02 52.962 127.931 52.886C127.855 52.7973 127.817 52.6897 127.817 52.563V46.882C127.817 44.7033 126.728 43.614 124.549 43.614H122.098C121.972 43.614 121.864 43.576 121.775 43.5C121.699 43.424 121.661 43.3227 121.661 43.196V42.588C121.661 42.4613 121.699 42.36 121.775 42.284C121.864 42.1953 121.972 42.151 122.098 42.151H124.663C127.881 42.151 129.489 43.6963 129.489 46.787V52.563C129.489 52.6897 129.445 52.7973 129.356 52.886C129.28 52.962 129.179 53 129.052 53H128.254ZM142.695 42.151C142.835 42.151 142.942 42.189 143.018 42.265C143.094 42.341 143.132 42.4487 143.132 42.588V47.87C143.132 48.934 142.911 49.8713 142.467 50.682C142.037 51.48 141.422 52.0943 140.624 52.525C139.839 52.943 138.933 53.1393 137.907 53.114H136.501C135.691 53.114 134.956 52.924 134.297 52.544C133.639 52.164 133.119 51.632 132.739 50.948C132.359 50.2513 132.169 49.4533 132.169 48.554V42.588C132.169 42.4613 132.207 42.36 132.283 42.284C132.372 42.1953 132.48 42.151 132.606 42.151H133.347C133.474 42.151 133.575 42.1953 133.651 42.284C133.74 42.36 133.784 42.4613 133.784 42.588L133.841 47.984C134.994 47.8953 135.798 47.585 136.254 47.053C136.71 46.521 136.938 45.8243 136.938 44.963V42.588C136.938 42.4613 136.976 42.36 137.052 42.284C137.128 42.1953 137.23 42.151 137.356 42.151H138.097C138.224 42.151 138.325 42.1953 138.401 42.284C138.49 42.36 138.534 42.4613 138.534 42.588V45.039C138.534 46.255 138.148 47.2557 137.375 48.041C136.603 48.8263 135.469 49.257 133.974 49.333C134.177 50.0677 134.551 50.6377 135.095 51.043C135.653 51.4357 136.318 51.632 137.09 51.632H137.698C138.902 51.6447 139.839 51.2963 140.51 50.587C141.182 49.8777 141.517 48.934 141.517 47.756V42.588C141.517 42.4613 141.555 42.36 141.631 42.284C141.72 42.1953 141.828 42.151 141.954 42.151H142.695ZM146.134 48.592C146.007 48.592 145.899 48.554 145.811 48.478C145.735 48.3893 145.697 48.2817 145.697 48.155V42.588C145.697 42.4613 145.735 42.36 145.811 42.284C145.899 42.1953 146.007 42.151 146.134 42.151H146.97C147.096 42.151 147.198 42.1953 147.274 42.284C147.362 42.36 147.407 42.4613 147.407 42.588V48.155C147.407 48.2817 147.362 48.3893 147.274 48.478C147.198 48.554 147.096 48.592 146.97 48.592H146.134ZM158.72 52.259C158.809 52.373 158.853 52.4933 158.853 52.62C158.853 52.7213 158.815 52.81 158.739 52.886C158.663 52.962 158.574 53 158.473 53H157.618C157.453 53 157.327 52.9557 157.238 52.867C157.149 52.7657 157.099 52.7087 157.086 52.696L152.754 46.597C152.209 47.0023 151.836 47.471 151.633 48.003C151.443 48.535 151.348 49.124 151.348 49.77V52.563C151.348 52.6897 151.304 52.7973 151.215 52.886C151.139 52.962 151.038 53 150.911 53H150.208C150.081 53 149.974 52.962 149.885 52.886C149.809 52.7973 149.771 52.6897 149.771 52.563V49.694C149.771 48.7567 149.91 47.9397 150.189 47.243C150.48 46.5463 151.044 45.9193 151.88 45.362L150.113 42.892C150.024 42.7527 149.98 42.6323 149.98 42.531C149.98 42.4297 150.018 42.341 150.094 42.265C150.17 42.189 150.259 42.151 150.36 42.151H151.196C151.399 42.151 151.576 42.2587 151.728 42.474L155.718 48.041C156.174 47.775 156.503 47.4963 156.706 47.205C156.921 46.9137 157.054 46.6287 157.105 46.35C157.156 46.0587 157.181 45.685 157.181 45.229V42.588C157.181 42.4613 157.219 42.36 157.295 42.284C157.384 42.1953 157.491 42.151 157.618 42.151H158.359C158.486 42.151 158.587 42.1953 158.663 42.284C158.752 42.36 158.796 42.4613 158.796 42.588V45.305C158.796 46.179 158.65 46.92 158.359 47.528C158.068 48.136 157.472 48.706 156.573 49.238L158.72 52.259ZM23.8822 79C23.7555 79 23.6478 78.962 23.5592 78.886C23.4832 78.7973 23.4452 78.6897 23.4452 78.563V72.882C23.4452 70.7033 22.3622 69.614 20.1962 69.614H16.6622C16.5355 69.614 16.4278 69.576 16.3392 69.5C16.2632 69.424 16.2252 69.3227 16.2252 69.196V68.588C16.2252 68.4613 16.2632 68.36 16.3392 68.284C16.4278 68.1953 16.5355 68.151 16.6622 68.151H20.2912C23.5085 68.151 25.1172 69.709 25.1172 72.825V78.563C25.1172 78.6897 25.0792 78.7973 25.0032 78.886C24.9272 78.962 24.8258 79 24.6992 79H23.8822ZM16.6622 79C16.5355 79 16.4278 78.962 16.3392 78.886C16.2632 78.7973 16.2252 78.6897 16.2252 78.563V72.179C16.2252 72.0523 16.2632 71.951 16.3392 71.875C16.4278 71.7863 16.5355 71.742 16.6622 71.742H17.4602C17.5868 71.742 17.6882 71.7863 17.7642 71.875C17.8528 71.951 17.8972 72.0523 17.8972 72.179V78.563C17.8972 78.6897 17.8528 78.7973 17.7642 78.886C17.6882 78.962 17.5868 79 17.4602 79H16.6622ZM30.3542 68.151C31.5069 68.151 32.4189 68.3157 33.0902 68.645C33.7742 68.9743 34.2682 69.5 34.5722 70.222C34.8762 70.944 35.0282 71.9067 35.0282 73.11C35.0282 74.7313 34.6292 75.998 33.8312 76.91C33.0332 77.8093 31.9945 78.4743 30.7152 78.905L29.9172 79.171C29.8919 79.1837 29.8475 79.19 29.7842 79.19C29.6955 79.19 29.6132 79.1583 29.5372 79.095C29.4739 79.0317 29.4422 78.943 29.4422 78.829V77.993C29.4422 77.8917 29.4802 77.7967 29.5562 77.708C29.6322 77.6067 29.7335 77.5307 29.8602 77.48L30.6012 77.195C31.4752 76.8657 32.1465 76.3907 32.6152 75.77C33.0839 75.1493 33.3182 74.2373 33.3182 73.034C33.3182 72.1853 33.2169 71.5203 33.0142 71.039C32.8115 70.545 32.4759 70.1903 32.0072 69.975C31.5512 69.7597 30.9179 69.652 30.1072 69.652H29.5182H29.4612L27.7132 69.633C27.5865 69.633 27.4789 69.595 27.3902 69.519C27.3142 69.443 27.2762 69.3417 27.2762 69.215V65.947C27.2762 65.8203 27.3142 65.719 27.3902 65.643C27.4789 65.5543 27.5865 65.51 27.7132 65.51H28.4732C28.5999 65.51 28.7012 65.5543 28.7772 65.643C28.8532 65.719 28.8912 65.8203 28.8912 65.947V68.151H29.9742H30.3542ZM45.2015 68.151C45.3408 68.151 45.4485 68.189 45.5245 68.265C45.6005 68.341 45.6385 68.4487 45.6385 68.588V73.832C45.6385 74.9467 45.2712 75.9537 44.5365 76.853C43.8145 77.7397 42.8328 78.3667 41.5915 78.734L37.4495 80.045C37.4115 80.0577 37.3608 80.064 37.2975 80.064C37.1962 80.064 37.1075 80.0323 37.0315 79.969C36.9555 79.9057 36.9175 79.8233 36.9175 79.722V79.133C36.9175 78.8417 37.0188 78.6643 37.2215 78.601L39.7105 77.784L37.2405 68.911C37.1772 68.6957 37.1455 68.569 37.1455 68.531C37.1455 68.4297 37.1835 68.341 37.2595 68.265C37.3355 68.189 37.4242 68.151 37.5255 68.151H38.3995C38.5135 68.151 38.6085 68.1827 38.6845 68.246C38.7605 68.2967 38.8112 68.36 38.8365 68.436L41.2685 77.252C42.2692 76.8973 42.9658 76.397 43.3585 75.751C43.7638 75.105 43.9665 74.2943 43.9665 73.319V68.588C43.9665 68.4613 44.0045 68.36 44.0805 68.284C44.1692 68.1953 44.2768 68.151 44.4035 68.151H45.2015ZM53.3748 68.151C54.1601 68.151 54.8568 68.341 55.4648 68.721C56.0854 69.0883 56.5668 69.6203 56.9088 70.317C57.2634 71.0137 57.4408 71.837 57.4408 72.787V78.563C57.4408 78.6897 57.3964 78.7973 57.3078 78.886C57.2318 78.962 57.1304 79 57.0038 79H52.1018C51.9751 79 51.8674 78.962 51.7788 78.886C51.7028 78.7973 51.6648 78.6897 51.6648 78.563V77.955C51.6648 77.8283 51.7028 77.727 51.7788 77.651C51.8674 77.5623 51.9751 77.518 52.1018 77.518H55.7688V72.901C55.7688 71.9383 55.5218 71.1593 55.0278 70.564C54.5464 69.956 53.9321 69.652 53.1848 69.652H51.1898L49.7078 78.544C49.6951 78.6707 49.6444 78.7783 49.5558 78.867C49.4671 78.9557 49.3594 79 49.2328 79H48.4348C48.3081 79 48.2068 78.9557 48.1308 78.867C48.0674 78.7783 48.0421 78.6707 48.0548 78.544L49.5748 69.652H48.6058C48.4791 69.652 48.3714 69.614 48.2828 69.538C48.2068 69.4493 48.1688 69.3417 48.1688 69.215V68.588C48.1688 68.4613 48.2068 68.36 48.2828 68.284C48.3714 68.1953 48.4791 68.151 48.6058 68.151H53.3748ZM60.7295 79C60.6029 79 60.4952 78.962 60.4065 78.886C60.3305 78.7973 60.2925 78.6897 60.2925 78.563V68.588C60.2925 68.4613 60.3305 68.36 60.4065 68.284C60.4952 68.1953 60.6029 68.151 60.7295 68.151H61.5655C61.6922 68.151 61.7935 68.1953 61.8695 68.284C61.9582 68.36 62.0025 68.4613 62.0025 68.588V78.563C62.0025 78.6897 61.9582 78.7973 61.8695 78.886C61.7935 78.962 61.6922 79 61.5655 79H60.7295ZM71.8981 68.151C73.0508 68.151 73.9628 68.3157 74.6341 68.645C75.3181 68.9743 75.8121 69.5 76.1161 70.222C76.4201 70.944 76.5721 71.9067 76.5721 73.11C76.5721 74.7313 76.1731 75.998 75.3751 76.91C74.5771 77.8093 73.5385 78.4743 72.2591 78.905L71.4611 79.171C71.4358 79.1837 71.3915 79.19 71.3281 79.19C71.2395 79.19 71.1571 79.1583 71.0811 79.095C71.0178 79.0317 70.9861 78.943 70.9861 78.829V77.993C70.9861 77.8917 71.0241 77.7967 71.1001 77.708C71.1761 77.6067 71.2775 77.5307 71.4041 77.48L72.1451 77.195C73.0191 76.8657 73.6905 76.3907 74.1591 75.77C74.6278 75.1493 74.8621 74.2373 74.8621 73.034C74.8621 72.1853 74.7608 71.5203 74.5581 71.039C74.3555 70.545 74.0198 70.1903 73.5511 69.975C73.0951 69.7597 72.4618 69.652 71.6511 69.652H71.0621H71.0051L69.2571 69.633C69.1305 69.633 69.0228 69.595 68.9341 69.519C68.8581 69.443 68.8201 69.3417 68.8201 69.215V65.947C68.8201 65.8203 68.8581 65.719 68.9341 65.643C69.0228 65.5543 69.1305 65.51 69.2571 65.51H70.0171C70.1438 65.51 70.2451 65.5543 70.3211 65.643C70.3971 65.719 70.4351 65.8203 70.4351 65.947V68.151H71.5181H71.8981ZM80.3424 69.196C80.3298 69.3607 80.2728 69.4937 80.1714 69.595C80.0701 69.6837 79.9498 69.728 79.8104 69.728H79.5064C79.3671 69.728 79.2468 69.6837 79.1454 69.595C79.0441 69.4937 78.9871 69.3607 78.9744 69.196L78.6324 66.194C78.6071 65.9913 78.6388 65.8267 78.7274 65.7C78.8161 65.5733 78.9554 65.51 79.1454 65.51H80.1714C80.3614 65.51 80.5008 65.5733 80.5894 65.7C80.6781 65.8267 80.7098 65.9913 80.6844 66.194L80.3424 69.196ZM83.3444 69.196C83.3318 69.3607 83.2748 69.4937 83.1734 69.595C83.0721 69.6837 82.9518 69.728 82.8124 69.728H82.5084C82.3691 69.728 82.2488 69.6837 82.1474 69.595C82.0461 69.4937 81.9891 69.3607 81.9764 69.196L81.6344 66.194C81.6091 65.9913 81.6408 65.8267 81.7294 65.7C81.8181 65.5733 81.9574 65.51 82.1474 65.51H83.1734C83.3634 65.51 83.5028 65.5733 83.5914 65.7C83.6801 65.8267 83.7118 65.9913 83.6864 66.194L83.3444 69.196ZM94.6879 78.259C94.7766 78.373 94.8209 78.4933 94.8209 78.62C94.8209 78.7213 94.7829 78.81 94.7069 78.886C94.6309 78.962 94.5422 79 94.4409 79H93.5859C93.4212 79 93.2946 78.9557 93.2059 78.867C93.1172 78.7657 93.0666 78.7087 93.0539 78.696L88.7219 72.597C88.1772 73.0023 87.8036 73.471 87.6009 74.003C87.4109 74.535 87.3159 75.124 87.3159 75.77V78.563C87.3159 78.6897 87.2716 78.7973 87.1829 78.886C87.1069 78.962 87.0056 79 86.8789 79H86.1759C86.0492 79 85.9416 78.962 85.8529 78.886C85.7769 78.7973 85.7389 78.6897 85.7389 78.563V75.694C85.7389 74.7567 85.8782 73.9397 86.1569 73.243C86.4482 72.5463 87.0119 71.9193 87.8479 71.362L86.0809 68.892C85.9922 68.7527 85.9479 68.6323 85.9479 68.531C85.9479 68.4297 85.9859 68.341 86.0619 68.265C86.1379 68.189 86.2266 68.151 86.3279 68.151H87.1639C87.3666 68.151 87.5439 68.2587 87.6959 68.474L91.6859 74.041C92.1419 73.775 92.4712 73.4963 92.6739 73.205C92.8892 72.9137 93.0222 72.6287 93.0729 72.35C93.1236 72.0587 93.1489 71.685 93.1489 71.229V68.588C93.1489 68.4613 93.1869 68.36 93.2629 68.284C93.3516 68.1953 93.4592 68.151 93.5859 68.151H94.3269C94.4536 68.151 94.5549 68.1953 94.6309 68.284C94.7196 68.36 94.7639 68.4613 94.7639 68.588V71.305C94.7639 72.179 94.6182 72.92 94.3269 73.528C94.0356 74.136 93.4402 74.706 92.5409 75.238L94.6879 78.259ZM101.888 79.19C100.33 79.19 99.158 78.7847 98.3727 77.974C97.6 77.1507 97.2137 75.9727 97.2137 74.44V68.588C97.2137 68.4613 97.2517 68.36 97.3277 68.284C97.4164 68.1953 97.524 68.151 97.6507 68.151H102.211C103.845 68.151 105.016 68.5183 105.726 69.253C106.435 69.9877 106.821 71.115 106.885 72.635C106.897 72.7617 106.904 73.1037 106.904 73.661C106.904 74.2183 106.897 74.5603 106.885 74.687C106.847 76.1943 106.435 77.3217 105.65 78.069C104.864 78.8163 103.61 79.19 101.888 79.19ZM101.869 77.689C103.059 77.689 103.914 77.442 104.434 76.948C104.953 76.4413 105.225 75.656 105.251 74.592C105.263 74.4653 105.27 74.155 105.27 73.661C105.27 73.167 105.263 72.8567 105.251 72.73C105.225 71.7167 104.934 70.944 104.377 70.412C103.832 69.88 103.078 69.614 102.116 69.614H98.8097V74.44C98.8097 75.4913 99.063 76.2957 99.5697 76.853C100.089 77.4103 100.855 77.689 101.869 77.689ZM118.89 68.151C122.107 68.151 123.716 69.6963 123.716 72.787V78.563C123.716 78.6897 123.672 78.7973 123.583 78.886C123.507 78.962 123.406 79 123.279 79H122.481C122.354 79 122.247 78.962 122.158 78.886C122.082 78.7973 122.044 78.6897 122.044 78.563V72.882C122.044 70.7033 120.961 69.614 118.795 69.614H117.408C117.281 70.3487 117.186 70.9883 117.123 71.533C117.072 72.0777 117.047 72.6983 117.047 73.395L117.085 78.563C117.085 78.6897 117.047 78.7973 116.971 78.886C116.895 78.962 116.794 79 116.667 79L114.026 78.962C113.899 78.962 113.792 78.924 113.703 78.848C113.627 78.7593 113.589 78.6517 113.589 78.525V77.955C113.589 77.8283 113.627 77.727 113.703 77.651C113.792 77.5623 113.899 77.518 114.026 77.518L115.47 77.537V73.471C115.47 72.6603 115.489 71.9827 115.527 71.438C115.578 70.8933 115.679 70.2853 115.831 69.614H114.824C114.697 69.614 114.59 69.576 114.501 69.5C114.425 69.424 114.387 69.3227 114.387 69.196V68.588C114.387 68.4613 114.425 68.36 114.501 68.284C114.59 68.1953 114.697 68.151 114.824 68.151H118.89ZM132.821 78.563C132.834 78.6897 132.796 78.7973 132.707 78.886C132.631 78.962 132.523 79 132.384 79H131.548C131.32 79 131.181 78.8543 131.13 78.563L130.693 76.34C130.224 77.062 129.686 77.6257 129.078 78.031C128.609 78.3477 128.172 78.5947 127.767 78.772C127.362 78.9367 126.931 79.0633 126.475 79.152L126.342 79.171C126.127 79.171 126.019 79.0697 126.019 78.867V77.974C126.019 77.7587 126.152 77.6003 126.418 77.499C126.456 77.4863 126.703 77.404 127.159 77.252C127.628 77.0873 128.046 76.8847 128.413 76.644C128.793 76.4033 129.167 76.074 129.534 75.656C129.901 75.2253 130.161 74.82 130.313 74.44L129.971 72.73C129.819 71.9827 129.654 71.3937 129.477 70.963C129.312 70.5197 129.084 70.184 128.793 69.956C128.502 69.728 128.115 69.614 127.634 69.614H126.95C126.823 69.614 126.716 69.576 126.627 69.5C126.551 69.424 126.513 69.3227 126.513 69.196V68.55C126.513 68.4233 126.551 68.322 126.627 68.246C126.716 68.1573 126.823 68.113 126.95 68.113H127.653C128.464 68.113 129.129 68.2777 129.648 68.607C130.167 68.9363 130.579 69.424 130.883 70.07C131.187 70.716 131.447 71.571 131.662 72.635L132.821 78.563ZM141.168 79C141.042 79 140.934 78.962 140.845 78.886C140.769 78.7973 140.731 78.6897 140.731 78.563V72.882C140.731 70.7033 139.642 69.614 137.463 69.614H135.012C134.886 69.614 134.778 69.576 134.689 69.5C134.613 69.424 134.575 69.3227 134.575 69.196V68.588C134.575 68.4613 134.613 68.36 134.689 68.284C134.778 68.1953 134.886 68.151 135.012 68.151H137.577C140.795 68.151 142.403 69.6963 142.403 72.787V78.563C142.403 78.6897 142.359 78.7973 142.27 78.886C142.194 78.962 142.093 79 141.966 79H141.168ZM152.636 68.151C152.763 68.151 152.864 68.1953 152.94 68.284C153.029 68.36 153.073 68.4613 153.073 68.588V69.196C153.073 69.3227 153.029 69.424 152.94 69.5C152.864 69.576 152.763 69.614 152.636 69.614H151.515C151.338 69.804 151.192 70.1017 151.078 70.507C150.977 70.9123 150.926 71.3683 150.926 71.875V78.582C150.926 78.7087 150.882 78.81 150.793 78.886C150.705 78.962 150.597 79 150.47 79H149.672C149.546 79 149.444 78.962 149.368 78.886C149.292 78.81 149.254 78.7087 149.254 78.582V71.761C149.254 71.2417 149.299 70.7983 149.387 70.431C149.476 70.0637 149.596 69.7913 149.748 69.614H144.504C144.378 69.614 144.27 69.576 144.181 69.5C144.105 69.424 144.067 69.3227 144.067 69.196V68.588C144.067 68.4613 144.105 68.36 144.181 68.284C144.27 68.1953 144.378 68.151 144.504 68.151H152.636ZM155.384 79C155.258 79 155.15 78.962 155.061 78.886C154.985 78.7973 154.947 78.6897 154.947 78.563V77.955C154.947 77.8283 154.985 77.727 155.061 77.651C155.15 77.5623 155.258 77.518 155.384 77.518H160.856V72.882C160.856 70.716 159.773 69.633 157.607 69.633H155.574C155.448 69.633 155.34 69.595 155.251 69.519C155.175 69.4303 155.137 69.3227 155.137 69.196V68.588C155.137 68.4613 155.175 68.36 155.251 68.284C155.34 68.1953 155.448 68.151 155.574 68.151H157.702C159.324 68.151 160.54 68.5437 161.35 69.329C162.161 70.1143 162.566 71.2733 162.566 72.806V77.518H163.269C163.396 77.518 163.497 77.5623 163.573 77.651C163.662 77.727 163.706 77.8283 163.706 77.955V78.563C163.706 78.6897 163.662 78.7973 163.573 78.886C163.497 78.962 163.396 79 163.269 79H155.384ZM15.8798 100.592C15.7531 100.592 15.6454 100.554 15.5568 100.478C15.4808 100.389 15.4428 100.282 15.4428 100.155V94.588C15.4428 94.4613 15.4808 94.36 15.5568 94.284C15.6454 94.1953 15.7531 94.151 15.8798 94.151H16.7158C16.8424 94.151 16.9438 94.1953 17.0198 94.284C17.1084 94.36 17.1528 94.4613 17.1528 94.588V100.155C17.1528 100.282 17.1084 100.389 17.0198 100.478C16.9438 100.554 16.8424 100.592 16.7158 100.592H15.8798ZM20.4102 105C20.2835 105 20.1759 104.962 20.0872 104.886C20.0112 104.797 19.9732 104.69 19.9732 104.563V103.936C19.9732 103.809 20.0112 103.708 20.0872 103.632C20.1759 103.543 20.2835 103.499 20.4102 103.499H23.1272C24.2292 103.499 25.0399 103.22 25.5592 102.663C26.0785 102.106 26.3635 101.295 26.4142 100.231C26.4269 100.054 26.4332 99.832 26.4332 99.566C26.4332 99.3127 26.4269 99.0973 26.4142 98.92C26.3762 97.8433 26.0912 97.0327 25.5592 96.488C25.0399 95.9307 24.2292 95.652 23.1272 95.652H20.4102C20.2835 95.652 20.1759 95.614 20.0872 95.538C20.0112 95.4493 19.9732 95.3417 19.9732 95.215V94.588C19.9732 94.4613 20.0112 94.36 20.0872 94.284C20.1759 94.1953 20.2835 94.151 20.4102 94.151H23.2222C24.8435 94.151 26.0405 94.5563 26.8132 95.367C27.5859 96.165 27.9975 97.324 28.0482 98.844C28.0609 99.0213 28.0672 99.262 28.0672 99.566C28.0672 99.87 28.0609 100.117 28.0482 100.307C27.9975 101.827 27.5859 102.992 26.8132 103.803C26.0405 104.601 24.8435 105 23.2222 105H20.4102ZM31.0235 105C30.8968 105 30.7892 104.962 30.7005 104.886C30.6245 104.797 30.5865 104.69 30.5865 104.563V94.588C30.5865 94.4613 30.6245 94.36 30.7005 94.284C30.7892 94.1953 30.8968 94.151 31.0235 94.151H31.8595C31.9862 94.151 32.0875 94.1953 32.1635 94.284C32.2522 94.36 32.2965 94.4613 32.2965 94.588V104.563C32.2965 104.69 32.2522 104.797 32.1635 104.886C32.0875 104.962 31.9862 105 31.8595 105H31.0235ZM39.6734 103.442C39.7114 103.239 39.7937 103.068 39.9204 102.929C40.0597 102.777 40.2497 102.701 40.4904 102.701H41.5924C41.7064 102.701 41.8014 102.745 41.8774 102.834C41.9661 102.91 42.0104 103.005 42.0104 103.119C42.0104 103.17 42.0041 103.214 41.9914 103.252L41.0034 105.817C40.8514 106.222 40.5791 106.425 40.1864 106.425H39.7114C39.5974 106.425 39.4961 106.381 39.4074 106.292C39.3314 106.216 39.2934 106.121 39.2934 106.007V105.969L39.6734 103.442ZM46.237 94.151C47.3897 94.151 48.3017 94.3157 48.973 94.645C49.657 94.9743 50.151 95.5 50.455 96.222C50.759 96.944 50.911 97.9067 50.911 99.11C50.911 100.731 50.512 101.998 49.714 102.91C48.916 103.809 47.8773 104.474 46.598 104.905L45.8 105.171C45.7747 105.184 45.7303 105.19 45.667 105.19C45.5783 105.19 45.496 105.158 45.42 105.095C45.3567 105.032 45.325 104.943 45.325 104.829V103.993C45.325 103.892 45.363 103.797 45.439 103.708C45.515 103.607 45.6163 103.531 45.743 103.48L46.484 103.195C47.358 102.866 48.0293 102.391 48.498 101.77C48.9667 101.149 49.201 100.237 49.201 99.034C49.201 98.1853 49.0997 97.5203 48.897 97.039C48.6943 96.545 48.3587 96.1903 47.89 95.975C47.434 95.7597 46.8007 95.652 45.99 95.652H45.401H45.344L43.596 95.633C43.4693 95.633 43.3617 95.595 43.273 95.519C43.197 95.443 43.159 95.3417 43.159 95.215V91.947C43.159 91.8203 43.197 91.719 43.273 91.643C43.3617 91.5543 43.4693 91.51 43.596 91.51H44.356C44.4827 91.51 44.584 91.5543 44.66 91.643C44.736 91.719 44.774 91.8203 44.774 91.947V94.151H45.857H46.237ZM54.6813 95.196C54.6686 95.3607 54.6116 95.4937 54.5103 95.595C54.409 95.6837 54.2886 95.728 54.1493 95.728H53.8453C53.706 95.728 53.5856 95.6837 53.4843 95.595C53.383 95.4937 53.326 95.3607 53.3133 95.196L52.9713 92.194C52.946 91.9913 52.9776 91.8267 53.0663 91.7C53.155 91.5733 53.2943 91.51 53.4843 91.51H54.5103C54.7003 91.51 54.8396 91.5733 54.9283 91.7C55.017 91.8267 55.0486 91.9913 55.0233 92.194L54.6813 95.196ZM57.6833 95.196C57.6706 95.3607 57.6136 95.4937 57.5123 95.595C57.411 95.6837 57.2906 95.728 57.1513 95.728H56.8473C56.708 95.728 56.5876 95.6837 56.4863 95.595C56.385 95.4937 56.328 95.3607 56.3153 95.196L55.9733 92.194C55.948 91.9913 55.9796 91.8267 56.0683 91.7C56.157 91.5733 56.2963 91.51 56.4863 91.51H57.5123C57.7023 91.51 57.8416 91.5733 57.9303 91.7C58.019 91.8267 58.0506 91.9913 58.0253 92.194L57.6833 95.196ZM60.9708 105C60.8441 105 60.7364 104.962 60.6478 104.886C60.5718 104.797 60.5338 104.69 60.5338 104.563V94.588C60.5338 94.4613 60.5718 94.36 60.6478 94.284C60.7364 94.1953 60.8441 94.151 60.9708 94.151H61.8068C61.9334 94.151 62.0348 94.1953 62.1108 94.284C62.1994 94.36 62.2438 94.4613 62.2438 94.588V104.563C62.2438 104.69 62.1994 104.797 62.1108 104.886C62.0348 104.962 61.9334 105 61.8068 105H60.9708ZM65.628 105C65.5013 105 65.3937 104.962 65.305 104.886C65.229 104.797 65.191 104.69 65.191 104.563V94.588C65.191 94.4613 65.229 94.36 65.305 94.284C65.3937 94.1953 65.5013 94.151 65.628 94.151H69.295C70.929 94.151 72.1387 94.5437 72.924 95.329C73.722 96.1017 74.121 97.267 74.121 98.825V104.563C74.121 104.69 74.0767 104.797 73.988 104.886C73.912 104.962 73.8107 105 73.684 105H72.886C72.7593 105 72.6517 104.962 72.563 104.886C72.487 104.797 72.449 104.69 72.449 104.563V98.882C72.449 96.7033 71.366 95.614 69.2 95.614H66.863V104.563C66.863 104.69 66.8187 104.797 66.73 104.886C66.654 104.962 66.5527 105 66.426 105H65.628ZM79.3571 94.151C80.5098 94.151 81.4218 94.3157 82.0931 94.645C82.7771 94.9743 83.2711 95.5 83.5751 96.222C83.8791 96.944 84.0311 97.9067 84.0311 99.11C84.0311 100.731 83.6321 101.998 82.8341 102.91C82.0361 103.809 80.9975 104.474 79.7181 104.905L78.9201 105.171C78.8948 105.184 78.8505 105.19 78.7871 105.19C78.6985 105.19 78.6161 105.158 78.5401 105.095C78.4768 105.032 78.4451 104.943 78.4451 104.829V103.993C78.4451 103.892 78.4831 103.797 78.5591 103.708C78.6351 103.607 78.7365 103.531 78.8631 103.48L79.6041 103.195C80.4781 102.866 81.1495 102.391 81.6181 101.77C82.0868 101.149 82.3211 100.237 82.3211 99.034C82.3211 98.1853 82.2198 97.5203 82.0171 97.039C81.8145 96.545 81.4788 96.1903 81.0101 95.975C80.5541 95.7597 79.9208 95.652 79.1101 95.652H78.5211H78.4641L76.7161 95.633C76.5895 95.633 76.4818 95.595 76.3931 95.519C76.3171 95.443 76.2791 95.3417 76.2791 95.215V91.947C76.2791 91.8203 76.3171 91.719 76.3931 91.643C76.4818 91.5543 76.5895 91.51 76.7161 91.51H77.4761C77.6028 91.51 77.7041 91.5543 77.7801 91.643C77.8561 91.719 77.8941 91.8203 77.8941 91.947V94.151H78.9771H79.3571ZM91.4901 100.592C91.3634 100.592 91.2558 100.554 91.1671 100.478C91.0911 100.389 91.0531 100.282 91.0531 100.155V94.588C91.0531 94.4613 91.0911 94.36 91.1671 94.284C91.2558 94.1953 91.3634 94.151 91.4901 94.151H92.3261C92.4528 94.151 92.5541 94.1953 92.6301 94.284C92.7188 94.36 92.7631 94.4613 92.7631 94.588V100.155C92.7631 100.282 92.7188 100.389 92.6301 100.478C92.5541 100.554 92.4528 100.592 92.3261 100.592H91.4901ZM100.41 94.151C103.627 94.151 105.236 95.6963 105.236 98.787V104.563C105.236 104.69 105.191 104.797 105.103 104.886C105.027 104.962 104.925 105 104.799 105H104.001C103.874 105 103.766 104.962 103.678 104.886C103.602 104.797 103.564 104.69 103.564 104.563V98.882C103.564 96.7033 102.481 95.614 100.315 95.614H98.9276C98.8009 96.3487 98.7059 96.9883 98.6426 97.533C98.5919 98.0777 98.5666 98.6983 98.5666 99.395L98.6046 104.563C98.6046 104.69 98.5666 104.797 98.4906 104.886C98.4146 104.962 98.3132 105 98.1866 105L95.5456 104.962C95.4189 104.962 95.3112 104.924 95.2226 104.848C95.1466 104.759 95.1086 104.652 95.1086 104.525V103.955C95.1086 103.828 95.1466 103.727 95.2226 103.651C95.3112 103.562 95.4189 103.518 95.5456 103.518L96.9896 103.537V99.471C96.9896 98.6603 97.0086 97.9827 97.0466 97.438C97.0972 96.8933 97.1986 96.2853 97.3506 95.614H96.3436C96.2169 95.614 96.1092 95.576 96.0206 95.5C95.9446 95.424 95.9066 95.3227 95.9066 95.196V94.588C95.9066 94.4613 95.9446 94.36 96.0206 94.284C96.1092 94.1953 96.2169 94.151 96.3436 94.151H100.41ZM116.582 104.259C116.671 104.373 116.715 104.493 116.715 104.62C116.715 104.721 116.677 104.81 116.601 104.886C116.525 104.962 116.437 105 116.335 105H115.48C115.316 105 115.189 104.956 115.1 104.867C115.012 104.766 114.961 104.709 114.948 104.696L110.616 98.597C110.072 99.0023 109.698 99.471 109.495 100.003C109.305 100.535 109.21 101.124 109.21 101.77V104.563C109.21 104.69 109.166 104.797 109.077 104.886C109.001 104.962 108.9 105 108.773 105H108.07C107.944 105 107.836 104.962 107.747 104.886C107.671 104.797 107.633 104.69 107.633 104.563V101.694C107.633 100.757 107.773 99.9397 108.051 99.243C108.343 98.5463 108.906 97.9193 109.742 97.362L107.975 94.892C107.887 94.7527 107.842 94.6323 107.842 94.531C107.842 94.4297 107.88 94.341 107.956 94.265C108.032 94.189 108.121 94.151 108.222 94.151H109.058C109.261 94.151 109.438 94.2587 109.59 94.474L113.58 100.041C114.036 99.775 114.366 99.4963 114.568 99.205C114.784 98.9137 114.917 98.6287 114.967 98.35C115.018 98.0587 115.043 97.685 115.043 97.229V94.588C115.043 94.4613 115.081 94.36 115.157 94.284C115.246 94.1953 115.354 94.151 115.48 94.151H116.221C116.348 94.151 116.449 94.1953 116.525 94.284C116.614 94.36 116.658 94.4613 116.658 94.588V97.305C116.658 98.179 116.513 98.92 116.221 99.528C115.93 100.136 115.335 100.706 114.435 101.238L116.582 104.259ZM119.526 100.592C119.4 100.592 119.292 100.554 119.203 100.478C119.127 100.389 119.089 100.282 119.089 100.155V94.588C119.089 94.4613 119.127 94.36 119.203 94.284C119.292 94.1953 119.4 94.151 119.526 94.151H120.362C120.489 94.151 120.59 94.1953 120.666 94.284C120.755 94.36 120.799 94.4613 120.799 94.588V100.155C120.799 100.282 120.755 100.389 120.666 100.478C120.59 100.554 120.489 100.592 120.362 100.592H119.526ZM131.087 96.45C131.087 97.438 130.884 98.2803 130.479 98.977C130.086 99.661 129.497 100.187 128.712 100.554L130.688 103.404C130.84 103.594 130.916 103.784 130.916 103.974V104.563C130.916 104.69 130.871 104.797 130.783 104.886C130.707 104.962 130.605 105 130.479 105H123.639C123.512 105 123.404 104.962 123.316 104.886C123.24 104.797 123.202 104.69 123.202 104.563V103.955C123.202 103.816 123.24 103.708 123.316 103.632C123.404 103.556 123.512 103.518 123.639 103.518H128.807L122.86 94.892C122.758 94.7527 122.708 94.6323 122.708 94.531C122.708 94.4297 122.746 94.341 122.822 94.265C122.91 94.189 123.005 94.151 123.107 94.151H123.962C124.164 94.151 124.335 94.2523 124.475 94.455L127.876 99.357C128.952 98.8503 129.491 97.8117 129.491 96.241V94.588C129.491 94.4487 129.529 94.341 129.605 94.265C129.693 94.189 129.801 94.151 129.928 94.151H130.669C130.795 94.151 130.897 94.1953 130.973 94.284C131.049 94.36 131.087 94.4613 131.087 94.588V96.45ZM134.017 100.592C133.891 100.592 133.783 100.554 133.694 100.478C133.618 100.389 133.58 100.282 133.58 100.155V94.588C133.58 94.4613 133.618 94.36 133.694 94.284C133.783 94.1953 133.891 94.151 134.017 94.151H134.853C134.98 94.151 135.081 94.1953 135.157 94.284C135.246 94.36 135.29 94.4613 135.29 94.588V100.155C135.29 100.282 135.246 100.389 135.157 100.478C135.081 100.554 134.98 100.592 134.853 100.592H134.017ZM147.576 94.151C150.793 94.151 152.402 95.6963 152.402 98.787V104.563C152.402 104.69 152.357 104.797 152.269 104.886C152.193 104.962 152.091 105 151.965 105H151.167C151.04 105 150.932 104.962 150.844 104.886C150.768 104.797 150.73 104.69 150.73 104.563V98.882C150.73 96.7033 149.647 95.614 147.481 95.614H146.094C145.967 96.3487 145.872 96.9883 145.809 97.533C145.758 98.0777 145.733 98.6983 145.733 99.395L145.771 104.563C145.771 104.69 145.733 104.797 145.657 104.886C145.581 104.962 145.479 105 145.353 105L142.712 104.962C142.585 104.962 142.477 104.924 142.389 104.848C142.313 104.759 142.275 104.652 142.275 104.525V103.955C142.275 103.828 142.313 103.727 142.389 103.651C142.477 103.562 142.585 103.518 142.712 103.518L144.156 103.537V99.471C144.156 98.6603 144.175 97.9827 144.213 97.438C144.263 96.8933 144.365 96.2853 144.517 95.614H143.51C143.383 95.614 143.275 95.576 143.187 95.5C143.111 95.424 143.073 95.3227 143.073 95.196V94.588C143.073 94.4613 143.111 94.36 143.187 94.284C143.275 94.1953 143.383 94.151 143.51 94.151H147.576ZM163.748 104.259C163.837 104.373 163.881 104.493 163.881 104.62C163.881 104.721 163.843 104.81 163.767 104.886C163.691 104.962 163.603 105 163.501 105H162.646C162.482 105 162.355 104.956 162.266 104.867C162.178 104.766 162.127 104.709 162.114 104.696L157.782 98.597C157.238 99.0023 156.864 99.471 156.661 100.003C156.471 100.535 156.376 101.124 156.376 101.77V104.563C156.376 104.69 156.332 104.797 156.243 104.886C156.167 104.962 156.066 105 155.939 105H155.236C155.11 105 155.002 104.962 154.913 104.886C154.837 104.797 154.799 104.69 154.799 104.563V101.694C154.799 100.757 154.939 99.9397 155.217 99.243C155.509 98.5463 156.072 97.9193 156.908 97.362L155.141 94.892C155.053 94.7527 155.008 94.6323 155.008 94.531C155.008 94.4297 155.046 94.341 155.122 94.265C155.198 94.189 155.287 94.151 155.388 94.151H156.224C156.427 94.151 156.604 94.2587 156.756 94.474L160.746 100.041C161.202 99.775 161.532 99.4963 161.734 99.205C161.95 98.9137 162.083 98.6287 162.133 98.35C162.184 98.0587 162.209 97.685 162.209 97.229V94.588C162.209 94.4613 162.247 94.36 162.323 94.284C162.412 94.1953 162.52 94.151 162.646 94.151H163.387C163.514 94.151 163.615 94.1953 163.691 94.284C163.78 94.36 163.824 94.4613 163.824 94.588V97.305C163.824 98.179 163.679 98.92 163.387 99.528C163.096 100.136 162.501 100.706 161.601 101.238L163.748 104.259ZM38.0394 131C37.9127 131 37.8051 130.962 37.7164 130.886C37.6404 130.797 37.6024 130.69 37.6024 130.563V124.882C37.6024 122.703 36.5194 121.614 34.3534 121.614H30.8194C30.6927 121.614 30.5851 121.576 30.4964 121.5C30.4204 121.424 30.3824 121.323 30.3824 121.196V120.588C30.3824 120.461 30.4204 120.36 30.4964 120.284C30.5851 120.195 30.6927 120.151 30.8194 120.151H34.4484C37.6657 120.151 39.2744 121.709 39.2744 124.825V130.563C39.2744 130.69 39.2364 130.797 39.1604 130.886C39.0844 130.962 38.9831 131 38.8564 131H38.0394ZM30.8194 131C30.6927 131 30.5851 130.962 30.4964 130.886C30.4204 130.797 30.3824 130.69 30.3824 130.563V124.179C30.3824 124.052 30.4204 123.951 30.4964 123.875C30.5851 123.786 30.6927 123.742 30.8194 123.742H31.6174C31.7441 123.742 31.8454 123.786 31.9214 123.875C32.0101 123.951 32.0544 124.052 32.0544 124.179V130.563C32.0544 130.69 32.0101 130.797 31.9214 130.886C31.8454 130.962 31.7441 131 31.6174 131H30.8194ZM50.6205 130.259C50.7092 130.373 50.7535 130.493 50.7535 130.62C50.7535 130.721 50.7155 130.81 50.6395 130.886C50.5635 130.962 50.4748 131 50.3735 131H49.5185C49.3538 131 49.2272 130.956 49.1385 130.867C49.0498 130.766 48.9992 130.709 48.9865 130.696L44.6545 124.597C44.1098 125.002 43.7362 125.471 43.5335 126.003C43.3435 126.535 43.2485 127.124 43.2485 127.77V130.563C43.2485 130.69 43.2042 130.797 43.1155 130.886C43.0395 130.962 42.9382 131 42.8115 131H42.1085C41.9818 131 41.8742 130.962 41.7855 130.886C41.7095 130.797 41.6715 130.69 41.6715 130.563V127.694C41.6715 126.757 41.8108 125.94 42.0895 125.243C42.3808 124.546 42.9445 123.919 43.7805 123.362L42.0135 120.892C41.9248 120.753 41.8805 120.632 41.8805 120.531C41.8805 120.43 41.9185 120.341 41.9945 120.265C42.0705 120.189 42.1592 120.151 42.2605 120.151H43.0965C43.2992 120.151 43.4765 120.259 43.6285 120.474L47.6185 126.041C48.0745 125.775 48.4038 125.496 48.6065 125.205C48.8218 124.914 48.9548 124.629 49.0055 124.35C49.0562 124.059 49.0815 123.685 49.0815 123.229V120.588C49.0815 120.461 49.1195 120.36 49.1955 120.284C49.2842 120.195 49.3918 120.151 49.5185 120.151H50.2595C50.3862 120.151 50.4875 120.195 50.5635 120.284C50.6522 120.36 50.6965 120.461 50.6965 120.588V123.305C50.6965 124.179 50.5508 124.92 50.2595 125.528C49.9682 126.136 49.3728 126.706 48.4735 127.238L50.6205 130.259ZM53.5643 126.592C53.4377 126.592 53.33 126.554 53.2413 126.478C53.1653 126.389 53.1273 126.282 53.1273 126.155V120.588C53.1273 120.461 53.1653 120.36 53.2413 120.284C53.33 120.195 53.4377 120.151 53.5643 120.151H54.4003C54.527 120.151 54.6283 120.195 54.7043 120.284C54.793 120.36 54.8373 120.461 54.8373 120.588V126.155C54.8373 126.282 54.793 126.389 54.7043 126.478C54.6283 126.554 54.527 126.592 54.4003 126.592H53.5643ZM65.1248 122.45C65.1248 123.438 64.9221 124.28 64.5168 124.977C64.1241 125.661 63.5351 126.187 62.7498 126.554L64.7258 129.404C64.8778 129.594 64.9538 129.784 64.9538 129.974V130.563C64.9538 130.69 64.9094 130.797 64.8208 130.886C64.7448 130.962 64.6434 131 64.5168 131H57.6768C57.5501 131 57.4424 130.962 57.3538 130.886C57.2778 130.797 57.2398 130.69 57.2398 130.563V129.955C57.2398 129.816 57.2778 129.708 57.3538 129.632C57.4424 129.556 57.5501 129.518 57.6768 129.518H62.8448L56.8978 120.892C56.7964 120.753 56.7458 120.632 56.7458 120.531C56.7458 120.43 56.7838 120.341 56.8598 120.265C56.9484 120.189 57.0434 120.151 57.1448 120.151H57.9998C58.2024 120.151 58.3734 120.252 58.5128 120.455L61.9138 125.357C62.9904 124.85 63.5288 123.812 63.5288 122.241V120.588C63.5288 120.449 63.5668 120.341 63.6428 120.265C63.7314 120.189 63.8391 120.151 63.9658 120.151H64.7068C64.8334 120.151 64.9348 120.195 65.0108 120.284C65.0868 120.36 65.1248 120.461 65.1248 120.588V122.45ZM68.0555 126.592C67.9289 126.592 67.8212 126.554 67.7325 126.478C67.6565 126.389 67.6185 126.282 67.6185 126.155V120.588C67.6185 120.461 67.6565 120.36 67.7325 120.284C67.8212 120.195 67.9289 120.151 68.0555 120.151H68.8915C69.0182 120.151 69.1195 120.195 69.1955 120.284C69.2842 120.36 69.3285 120.461 69.3285 120.588V126.155C69.3285 126.282 69.2842 126.389 69.1955 126.478C69.1195 126.554 69.0182 126.592 68.8915 126.592H68.0555ZM79.806 131C79.6793 131 79.5717 130.962 79.483 130.886C79.407 130.797 79.369 130.69 79.369 130.563V124.882C79.369 122.703 78.286 121.614 76.12 121.614H72.586C72.4593 121.614 72.3517 121.576 72.263 121.5C72.187 121.424 72.149 121.323 72.149 121.196V120.588C72.149 120.461 72.187 120.36 72.263 120.284C72.3517 120.195 72.4593 120.151 72.586 120.151H76.215C79.4323 120.151 81.041 121.709 81.041 124.825V130.563C81.041 130.69 81.003 130.797 80.927 130.886C80.851 130.962 80.7497 131 80.623 131H79.806ZM72.586 131C72.4593 131 72.3517 130.962 72.263 130.886C72.187 130.797 72.149 130.69 72.149 130.563V124.179C72.149 124.052 72.187 123.951 72.263 123.875C72.3517 123.786 72.4593 123.742 72.586 123.742H73.384C73.5107 123.742 73.612 123.786 73.688 123.875C73.7767 123.951 73.821 124.052 73.821 124.179V130.563C73.821 130.69 73.7767 130.797 73.688 130.886C73.612 130.962 73.5107 131 73.384 131H72.586ZM94.2491 120.151C94.3884 120.151 94.4961 120.189 94.5721 120.265C94.6481 120.341 94.6861 120.449 94.6861 120.588V125.87C94.6861 126.934 94.4644 127.871 94.0211 128.682C93.5904 129.48 92.9761 130.094 92.1781 130.525C91.3928 130.943 90.4871 131.139 89.4611 131.114H88.0551C87.2444 131.114 86.5098 130.924 85.8511 130.544C85.1924 130.164 84.6731 129.632 84.2931 128.948C83.9131 128.251 83.7231 127.453 83.7231 126.554V120.588C83.7231 120.461 83.7611 120.36 83.8371 120.284C83.9258 120.195 84.0334 120.151 84.1601 120.151H84.9011C85.0278 120.151 85.1291 120.195 85.2051 120.284C85.2938 120.36 85.3381 120.461 85.3381 120.588L85.3951 125.984C86.5478 125.895 87.3521 125.585 87.8081 125.053C88.2641 124.521 88.4921 123.824 88.4921 122.963V120.588C88.4921 120.461 88.5301 120.36 88.6061 120.284C88.6821 120.195 88.7834 120.151 88.9101 120.151H89.6511C89.7778 120.151 89.8791 120.195 89.9551 120.284C90.0438 120.36 90.0881 120.461 90.0881 120.588V123.039C90.0881 124.255 89.7018 125.256 88.9291 126.041C88.1564 126.826 87.0228 127.257 85.5281 127.333C85.7308 128.068 86.1044 128.638 86.6491 129.043C87.2064 129.436 87.8714 129.632 88.6441 129.632H89.2521C90.4554 129.645 91.3928 129.296 92.0641 128.587C92.7354 127.878 93.0711 126.934 93.0711 125.756V120.588C93.0711 120.461 93.1091 120.36 93.1851 120.284C93.2738 120.195 93.3814 120.151 93.5081 120.151H94.2491ZM102.326 126.592C102.199 126.592 102.092 126.554 102.003 126.478C101.927 126.389 101.889 126.282 101.889 126.155V120.588C101.889 120.461 101.927 120.36 102.003 120.284C102.092 120.195 102.199 120.151 102.326 120.151H103.162C103.289 120.151 103.39 120.195 103.466 120.284C103.555 120.36 103.599 120.461 103.599 120.588V126.155C103.599 126.282 103.555 126.389 103.466 126.478C103.39 126.554 103.289 126.592 103.162 126.592H102.326ZM109.175 120.151C110.327 120.151 111.239 120.316 111.911 120.645C112.595 120.974 113.089 121.5 113.393 122.222C113.697 122.944 113.849 123.907 113.849 125.11C113.849 126.731 113.45 127.998 112.652 128.91C111.854 129.809 110.815 130.474 109.536 130.905L108.738 131.171C108.712 131.184 108.668 131.19 108.605 131.19C108.516 131.19 108.434 131.158 108.358 131.095C108.294 131.032 108.263 130.943 108.263 130.829V129.993C108.263 129.892 108.301 129.797 108.377 129.708C108.453 129.607 108.554 129.531 108.681 129.48L109.422 129.195C110.296 128.866 110.967 128.391 111.436 127.77C111.904 127.149 112.139 126.237 112.139 125.034C112.139 124.185 112.037 123.52 111.835 123.039C111.632 122.545 111.296 122.19 110.828 121.975C110.372 121.76 109.738 121.652 108.928 121.652H108.339H108.282L106.534 121.633C106.407 121.633 106.299 121.595 106.211 121.519C106.135 121.443 106.097 121.342 106.097 121.215V117.947C106.097 117.82 106.135 117.719 106.211 117.643C106.299 117.554 106.407 117.51 106.534 117.51H107.294C107.42 117.51 107.522 117.554 107.598 117.643C107.674 117.719 107.712 117.82 107.712 117.947V120.151H108.795H109.175ZM128.66 120.151C128.8 120.151 128.907 120.189 128.983 120.265C129.059 120.341 129.097 120.449 129.097 120.588V125.832C129.097 126.947 128.73 127.954 127.995 128.853C127.273 129.74 126.292 130.367 125.05 130.734L120.908 132.045C120.87 132.058 120.82 132.064 120.756 132.064C120.655 132.064 120.566 132.032 120.49 131.969C120.414 131.906 120.376 131.823 120.376 131.722V131.133C120.376 130.842 120.478 130.664 120.68 130.601L123.169 129.784L120.699 120.911C120.636 120.696 120.604 120.569 120.604 120.531C120.604 120.43 120.642 120.341 120.718 120.265C120.794 120.189 120.883 120.151 120.984 120.151H121.858C121.972 120.151 122.067 120.183 122.143 120.246C122.219 120.297 122.27 120.36 122.295 120.436L124.727 129.252C125.728 128.897 126.425 128.397 126.817 127.751C127.223 127.105 127.425 126.294 127.425 125.319V120.588C127.425 120.461 127.463 120.36 127.539 120.284C127.628 120.195 127.736 120.151 127.862 120.151H128.66ZM132.388 131C132.261 131 132.153 130.962 132.065 130.886C131.989 130.797 131.951 130.69 131.951 130.563V120.588C131.951 120.461 131.989 120.36 132.065 120.284C132.153 120.195 132.261 120.151 132.388 120.151H133.224C133.35 120.151 133.452 120.195 133.528 120.284C133.616 120.36 133.661 120.461 133.661 120.588V130.563C133.661 130.69 133.616 130.797 133.528 130.886C133.452 130.962 133.35 131 133.224 131H132.388ZM144.398 120.151C144.525 120.151 144.626 120.195 144.702 120.284C144.791 120.36 144.835 120.461 144.835 120.588V121.196C144.835 121.323 144.791 121.424 144.702 121.5C144.626 121.576 144.525 121.614 144.398 121.614H143.277C143.1 121.804 142.954 122.102 142.84 122.507C142.739 122.912 142.688 123.368 142.688 123.875V130.582C142.688 130.709 142.644 130.81 142.555 130.886C142.466 130.962 142.359 131 142.232 131H141.434C141.307 131 141.206 130.962 141.13 130.886C141.054 130.81 141.016 130.709 141.016 130.582V123.761C141.016 123.242 141.06 122.798 141.149 122.431C141.238 122.064 141.358 121.791 141.51 121.614H136.266C136.139 121.614 136.032 121.576 135.943 121.5C135.867 121.424 135.829 121.323 135.829 121.196V120.588C135.829 120.461 135.867 120.36 135.943 120.284C136.032 120.195 136.139 120.151 136.266 120.151H144.398ZM147.488 126.592C147.361 126.592 147.254 126.554 147.165 126.478C147.089 126.389 147.051 126.282 147.051 126.155V120.588C147.051 120.461 147.089 120.36 147.165 120.284C147.254 120.195 147.361 120.151 147.488 120.151H148.324C148.451 120.151 148.552 120.195 148.628 120.284C148.717 120.36 148.761 120.461 148.761 120.588V126.155C148.761 126.282 148.717 126.389 148.628 126.478C148.552 126.554 148.451 126.592 148.324 126.592H147.488ZM33.7181 157C33.5914 157 33.4837 156.962 33.3951 156.886C33.3191 156.797 33.2811 156.69 33.2811 156.563V150.882C33.2811 148.703 32.1917 147.614 30.0131 147.614H27.5621C27.4354 147.614 27.3277 147.576 27.2391 147.5C27.1631 147.424 27.1251 147.323 27.1251 147.196V146.588C27.1251 146.461 27.1631 146.36 27.2391 146.284C27.3277 146.195 27.4354 146.151 27.5621 146.151H30.1271C33.3444 146.151 34.9531 147.696 34.9531 150.787V156.563C34.9531 156.69 34.9087 156.797 34.8201 156.886C34.7441 156.962 34.6427 157 34.5161 157H33.7181ZM38.2413 157C38.1146 157 38.0069 156.962 37.9183 156.886C37.8423 156.797 37.8043 156.69 37.8043 156.563V146.588C37.8043 146.461 37.8423 146.36 37.9183 146.284C38.0069 146.195 38.1146 146.151 38.2413 146.151H39.0773C39.2039 146.151 39.3053 146.195 39.3813 146.284C39.4699 146.36 39.5143 146.461 39.5143 146.588V156.563C39.5143 156.69 39.4699 156.797 39.3813 156.886C39.3053 156.962 39.2039 157 39.0773 157H38.2413ZM52.8165 146.151C52.9558 146.151 53.0635 146.189 53.1395 146.265C53.2155 146.341 53.2535 146.449 53.2535 146.588V151.87C53.2535 152.934 53.0318 153.871 52.5885 154.682C52.1578 155.48 51.5435 156.094 50.7455 156.525C49.9602 156.943 49.0545 157.139 48.0285 157.114H46.6225C45.8118 157.114 45.0772 156.924 44.4185 156.544C43.7598 156.164 43.2405 155.632 42.8605 154.948C42.4805 154.251 42.2905 153.453 42.2905 152.554V146.588C42.2905 146.461 42.3285 146.36 42.4045 146.284C42.4932 146.195 42.6008 146.151 42.7275 146.151H43.4685C43.5952 146.151 43.6965 146.195 43.7725 146.284C43.8612 146.36 43.9055 146.461 43.9055 146.588L43.9625 151.984C45.1152 151.895 45.9195 151.585 46.3755 151.053C46.8315 150.521 47.0595 149.824 47.0595 148.963V146.588C47.0595 146.461 47.0975 146.36 47.1735 146.284C47.2495 146.195 47.3508 146.151 47.4775 146.151H48.2185C48.3452 146.151 48.4465 146.195 48.5225 146.284C48.6112 146.36 48.6555 146.461 48.6555 146.588V149.039C48.6555 150.255 48.2692 151.256 47.4965 152.041C46.7238 152.826 45.5902 153.257 44.0955 153.333C44.2982 154.068 44.6718 154.638 45.2165 155.043C45.7738 155.436 46.4388 155.632 47.2115 155.632H47.8195C49.0228 155.645 49.9602 155.296 50.6315 154.587C51.3028 153.878 51.6385 152.934 51.6385 151.756V146.588C51.6385 146.461 51.6765 146.36 51.7525 146.284C51.8412 146.195 51.9488 146.151 52.0755 146.151H52.8165ZM56.2548 152.592C56.1281 152.592 56.0204 152.554 55.9318 152.478C55.8558 152.389 55.8178 152.282 55.8178 152.155V146.588C55.8178 146.461 55.8558 146.36 55.9318 146.284C56.0204 146.195 56.1281 146.151 56.2548 146.151H57.0908C57.2174 146.151 57.3188 146.195 57.3948 146.284C57.4834 146.36 57.5278 146.461 57.5278 146.588V152.155C57.5278 152.282 57.4834 152.389 57.3948 152.478C57.3188 152.554 57.2174 152.592 57.0908 152.592H56.2548ZM68.8412 156.259C68.9299 156.373 68.9742 156.493 68.9742 156.62C68.9742 156.721 68.9362 156.81 68.8602 156.886C68.7842 156.962 68.6955 157 68.5942 157H67.7392C67.5745 157 67.4479 156.956 67.3592 156.867C67.2705 156.766 67.2199 156.709 67.2072 156.696L62.8752 150.597C62.3305 151.002 61.9569 151.471 61.7542 152.003C61.5642 152.535 61.4692 153.124 61.4692 153.77V156.563C61.4692 156.69 61.4249 156.797 61.3362 156.886C61.2602 156.962 61.1589 157 61.0322 157H60.3292C60.2025 157 60.0949 156.962 60.0062 156.886C59.9302 156.797 59.8922 156.69 59.8922 156.563V153.694C59.8922 152.757 60.0315 151.94 60.3102 151.243C60.6015 150.546 61.1652 149.919 62.0012 149.362L60.2342 146.892C60.1455 146.753 60.1012 146.632 60.1012 146.531C60.1012 146.43 60.1392 146.341 60.2152 146.265C60.2912 146.189 60.3799 146.151 60.4812 146.151H61.3172C61.5199 146.151 61.6972 146.259 61.8492 146.474L65.8392 152.041C66.2952 151.775 66.6245 151.496 66.8272 151.205C67.0425 150.914 67.1755 150.629 67.2262 150.35C67.2769 150.059 67.3022 149.685 67.3022 149.229V146.588C67.3022 146.461 67.3402 146.36 67.4162 146.284C67.5049 146.195 67.6125 146.151 67.7392 146.151H68.4802C68.6069 146.151 68.7082 146.195 68.7842 146.284C68.8729 146.36 68.9172 146.461 68.9172 146.588V149.305C68.9172 150.179 68.7715 150.92 68.4802 151.528C68.1889 152.136 67.5935 152.706 66.6942 153.238L68.8412 156.259ZM84.6127 156.259C84.7014 156.373 84.7457 156.493 84.7457 156.62C84.7457 156.721 84.7077 156.81 84.6317 156.886C84.5557 156.962 84.467 157 84.3657 157H83.5107C83.346 157 83.2194 156.956 83.1307 156.867C83.042 156.766 82.9914 156.709 82.9787 156.696L78.6467 150.597C78.102 151.002 77.7284 151.471 77.5257 152.003C77.3357 152.535 77.2407 153.124 77.2407 153.77V156.563C77.2407 156.69 77.1964 156.797 77.1077 156.886C77.0317 156.962 76.9304 157 76.8037 157H76.1007C75.974 157 75.8664 156.962 75.7777 156.886C75.7017 156.797 75.6637 156.69 75.6637 156.563V153.694C75.6637 152.757 75.803 151.94 76.0817 151.243C76.373 150.546 76.9367 149.919 77.7727 149.362L76.0057 146.892C75.917 146.753 75.8727 146.632 75.8727 146.531C75.8727 146.43 75.9107 146.341 75.9867 146.265C76.0627 146.189 76.1514 146.151 76.2527 146.151H77.0887C77.2914 146.151 77.4687 146.259 77.6207 146.474L81.6107 152.041C82.0667 151.775 82.396 151.496 82.5987 151.205C82.814 150.914 82.947 150.629 82.9977 150.35C83.0484 150.059 83.0737 149.685 83.0737 149.229V146.588C83.0737 146.461 83.1117 146.36 83.1877 146.284C83.2764 146.195 83.384 146.151 83.5107 146.151H84.2517C84.3784 146.151 84.4797 146.195 84.5557 146.284C84.6444 146.36 84.6887 146.461 84.6887 146.588V149.305C84.6887 150.179 84.543 150.92 84.2517 151.528C83.9604 152.136 83.365 152.706 82.4657 153.238L84.6127 156.259ZM90.0075 146.151C91.1602 146.151 92.0722 146.316 92.7435 146.645C93.4275 146.974 93.9215 147.5 94.2255 148.222C94.5295 148.944 94.6815 149.907 94.6815 151.11C94.6815 152.731 94.2825 153.998 93.4845 154.91C92.6865 155.809 91.6478 156.474 90.3685 156.905L89.5705 157.171C89.5452 157.184 89.5008 157.19 89.4375 157.19C89.3488 157.19 89.2665 157.158 89.1905 157.095C89.1272 157.032 89.0955 156.943 89.0955 156.829V155.993C89.0955 155.892 89.1335 155.797 89.2095 155.708C89.2855 155.607 89.3868 155.531 89.5135 155.48L90.2545 155.195C91.1285 154.866 91.7998 154.391 92.2685 153.77C92.7372 153.149 92.9715 152.237 92.9715 151.034C92.9715 150.185 92.8702 149.52 92.6675 149.039C92.4648 148.545 92.1292 148.19 91.6605 147.975C91.2045 147.76 90.5712 147.652 89.7605 147.652H89.1715H89.1145L87.3665 147.633C87.2398 147.633 87.1322 147.595 87.0435 147.519C86.9675 147.443 86.9295 147.342 86.9295 147.215V143.947C86.9295 143.82 86.9675 143.719 87.0435 143.643C87.1322 143.554 87.2398 143.51 87.3665 143.51H88.1265C88.2532 143.51 88.3545 143.554 88.4305 143.643C88.5065 143.719 88.5445 143.82 88.5445 143.947V146.151H89.6275H90.0075ZM99.9528 146.151C101.105 146.151 102.017 146.316 102.689 146.645C103.373 146.974 103.867 147.5 104.171 148.222C104.475 148.944 104.627 149.907 104.627 151.11C104.627 152.731 104.228 153.998 103.43 154.91C102.632 155.809 101.593 156.474 100.314 156.905L99.5158 157.171C99.4905 157.184 99.4462 157.19 99.3828 157.19C99.2942 157.19 99.2118 157.158 99.1358 157.095C99.0725 157.032 99.0408 156.943 99.0408 156.829V155.993C99.0408 155.892 99.0788 155.797 99.1548 155.708C99.2308 155.607 99.3322 155.531 99.4588 155.48L100.2 155.195C101.074 154.866 101.745 154.391 102.214 153.77C102.682 153.149 102.917 152.237 102.917 151.034C102.917 150.185 102.815 149.52 102.613 149.039C102.41 148.545 102.074 148.19 101.606 147.975C101.15 147.76 100.516 147.652 99.7058 147.652H99.1168H99.0598L97.3118 147.633C97.1852 147.633 97.0775 147.595 96.9888 147.519C96.9128 147.443 96.8748 147.342 96.8748 147.215V143.947C96.8748 143.82 96.9128 143.719 96.9888 143.643C97.0775 143.554 97.1852 143.51 97.3118 143.51H98.0718C98.1985 143.51 98.2998 143.554 98.3758 143.643C98.4518 143.719 98.4898 143.82 98.4898 143.947V146.151H99.5728H99.9528ZM114.091 146.151C115.244 146.151 116.156 146.316 116.827 146.645C117.511 146.974 118.005 147.5 118.309 148.222C118.613 148.944 118.765 149.907 118.765 151.11C118.765 152.731 118.366 153.998 117.568 154.91C116.77 155.809 115.732 156.474 114.452 156.905L113.654 157.171C113.629 157.184 113.585 157.19 113.521 157.19C113.433 157.19 113.35 157.158 113.274 157.095C113.211 157.032 113.179 156.943 113.179 156.829V155.993C113.179 155.892 113.217 155.797 113.293 155.708C113.369 155.607 113.471 155.531 113.597 155.48L114.338 155.195C115.212 154.866 115.884 154.391 116.352 153.77C116.821 153.149 117.055 152.237 117.055 151.034C117.055 150.185 116.954 149.52 116.751 149.039C116.549 148.545 116.213 148.19 115.744 147.975C115.288 147.76 114.655 147.652 113.844 147.652H113.255H113.198L111.45 147.633C111.324 147.633 111.216 147.595 111.127 147.519C111.051 147.443 111.013 147.342 111.013 147.215V143.947C111.013 143.82 111.051 143.719 111.127 143.643C111.216 143.554 111.324 143.51 111.45 143.51H112.21C112.337 143.51 112.438 143.554 112.514 143.643C112.59 143.719 112.628 143.82 112.628 143.947V146.151H113.711H114.091ZM122.536 147.196C122.523 147.361 122.466 147.494 122.365 147.595C122.263 147.684 122.143 147.728 122.004 147.728H121.7C121.56 147.728 121.44 147.684 121.339 147.595C121.237 147.494 121.18 147.361 121.168 147.196L120.826 144.194C120.8 143.991 120.832 143.827 120.921 143.7C121.009 143.573 121.149 143.51 121.339 143.51H122.365C122.555 143.51 122.694 143.573 122.783 143.7C122.871 143.827 122.903 143.991 122.878 144.194L122.536 147.196ZM125.538 147.196C125.525 147.361 125.468 147.494 125.367 147.595C125.265 147.684 125.145 147.728 125.006 147.728H124.702C124.562 147.728 124.442 147.684 124.341 147.595C124.239 147.494 124.182 147.361 124.17 147.196L123.828 144.194C123.802 143.991 123.834 143.827 123.923 143.7C124.011 143.573 124.151 143.51 124.341 143.51H125.367C125.557 143.51 125.696 143.573 125.785 143.7C125.873 143.827 125.905 143.991 125.88 144.194L125.538 147.196ZM128.825 157C128.699 157 128.591 156.962 128.502 156.886C128.426 156.797 128.388 156.69 128.388 156.563V146.588C128.388 146.461 128.426 146.36 128.502 146.284C128.591 146.195 128.699 146.151 128.825 146.151H129.661C129.788 146.151 129.889 146.195 129.965 146.284C130.054 146.36 130.098 146.461 130.098 146.588V156.563C130.098 156.69 130.054 156.797 129.965 156.886C129.889 156.962 129.788 157 129.661 157H128.825ZM133.482 157C133.356 157 133.248 156.962 133.159 156.886C133.083 156.797 133.045 156.69 133.045 156.563V146.588C133.045 146.461 133.083 146.36 133.159 146.284C133.248 146.195 133.356 146.151 133.482 146.151H137.149C138.783 146.151 139.993 146.544 140.778 147.329C141.576 148.102 141.975 149.267 141.975 150.825V156.563C141.975 156.69 141.931 156.797 141.842 156.886C141.766 156.962 141.665 157 141.538 157H140.74C140.614 157 140.506 156.962 140.417 156.886C140.341 156.797 140.303 156.69 140.303 156.563V150.882C140.303 148.703 139.22 147.614 137.054 147.614H134.717V156.563C134.717 156.69 134.673 156.797 134.584 156.886C134.508 156.962 134.407 157 134.28 157H133.482ZM147.212 146.151C148.364 146.151 149.276 146.316 149.948 146.645C150.632 146.974 151.126 147.5 151.43 148.222C151.734 148.944 151.886 149.907 151.886 151.11C151.886 152.731 151.487 153.998 150.689 154.91C149.891 155.809 148.852 156.474 147.573 156.905L146.775 157.171C146.749 157.184 146.705 157.19 146.642 157.19C146.553 157.19 146.471 157.158 146.395 157.095C146.331 157.032 146.3 156.943 146.3 156.829V155.993C146.3 155.892 146.338 155.797 146.414 155.708C146.49 155.607 146.591 155.531 146.718 155.48L147.459 155.195C148.333 154.866 149.004 154.391 149.473 153.77C149.941 153.149 150.176 152.237 150.176 151.034C150.176 150.185 150.074 149.52 149.872 149.039C149.669 148.545 149.333 148.19 148.865 147.975C148.409 147.76 147.775 147.652 146.965 147.652H146.376H146.319L144.571 147.633C144.444 147.633 144.336 147.595 144.248 147.519C144.172 147.443 144.134 147.342 144.134 147.215V143.947C144.134 143.82 144.172 143.719 144.248 143.643C144.336 143.554 144.444 143.51 144.571 143.51H145.331C145.457 143.51 145.559 143.554 145.635 143.643C145.711 143.719 145.749 143.82 145.749 143.947V146.151H146.832H147.212ZM23.6502 183C23.5236 183 23.4159 182.962 23.3272 182.886C23.2512 182.797 23.2132 182.69 23.2132 182.563V176.882C23.2132 174.703 22.1302 173.614 19.9642 173.614H16.4302C16.3036 173.614 16.1959 173.576 16.1072 173.5C16.0312 173.424 15.9932 173.323 15.9932 173.196V172.588C15.9932 172.461 16.0312 172.36 16.1072 172.284C16.1959 172.195 16.3036 172.151 16.4302 172.151H20.0592C23.2766 172.151 24.8852 173.709 24.8852 176.825V182.563C24.8852 182.69 24.8472 182.797 24.7712 182.886C24.6952 182.962 24.5939 183 24.4672 183H23.6502ZM16.4302 183C16.3036 183 16.1959 182.962 16.1072 182.886C16.0312 182.797 15.9932 182.69 15.9932 182.563V176.179C15.9932 176.052 16.0312 175.951 16.1072 175.875C16.1959 175.786 16.3036 175.742 16.4302 175.742H17.2282C17.3549 175.742 17.4562 175.786 17.5322 175.875C17.6209 175.951 17.6652 176.052 17.6652 176.179V182.563C17.6652 182.69 17.6209 182.797 17.5322 182.886C17.4562 182.962 17.3549 183 17.2282 183H16.4302ZM33.8943 183C33.7677 183 33.66 182.962 33.5713 182.886C33.4953 182.797 33.4573 182.69 33.4573 182.563V176.882C33.4573 174.703 32.368 173.614 30.1893 173.614H27.7383C27.6117 173.614 27.504 173.576 27.4153 173.5C27.3393 173.424 27.3013 173.323 27.3013 173.196V172.588C27.3013 172.461 27.3393 172.36 27.4153 172.284C27.504 172.195 27.6117 172.151 27.7383 172.151H30.3033C33.5207 172.151 35.1293 173.696 35.1293 176.787V182.563C35.1293 182.69 35.085 182.797 34.9963 182.886C34.9203 182.962 34.819 183 34.6923 183H33.8943ZM38.2845 178.592C38.1579 178.592 38.0502 178.554 37.9615 178.478C37.8855 178.389 37.8475 178.282 37.8475 178.155V172.588C37.8475 172.461 37.8855 172.36 37.9615 172.284C38.0502 172.195 38.1579 172.151 38.2845 172.151H39.1205C39.2472 172.151 39.3485 172.195 39.4245 172.284C39.5132 172.36 39.5575 172.461 39.5575 172.588V178.155C39.5575 178.282 39.5132 178.389 39.4245 178.478C39.3485 178.554 39.2472 178.592 39.1205 178.592H38.2845ZM42.34 183C42.2133 183 42.1057 182.962 42.017 182.886C41.941 182.797 41.903 182.69 41.903 182.563V181.955C41.903 181.828 41.941 181.727 42.017 181.651C42.1057 181.562 42.2133 181.518 42.34 181.518H47.812V176.882C47.812 174.716 46.729 173.633 44.563 173.633H42.53C42.4033 173.633 42.2957 173.595 42.207 173.519C42.131 173.43 42.093 173.323 42.093 173.196V172.588C42.093 172.461 42.131 172.36 42.207 172.284C42.2957 172.195 42.4033 172.151 42.53 172.151H44.658C46.2793 172.151 47.4953 172.544 48.306 173.329C49.1167 174.114 49.522 175.273 49.522 176.806V181.518H50.225C50.3517 181.518 50.453 181.562 50.529 181.651C50.6177 181.727 50.662 181.828 50.662 181.955V182.563C50.662 182.69 50.6177 182.797 50.529 182.886C50.453 182.962 50.3517 183 50.225 183H42.34ZM60.3514 172.151C60.4907 172.151 60.5984 172.189 60.6744 172.265C60.7504 172.341 60.7884 172.449 60.7884 172.588V177.832C60.7884 178.947 60.4211 179.954 59.6864 180.853C58.9644 181.74 57.9827 182.367 56.7414 182.734L52.5994 184.045C52.5614 184.058 52.5107 184.064 52.4474 184.064C52.3461 184.064 52.2574 184.032 52.1814 183.969C52.1054 183.906 52.0674 183.823 52.0674 183.722V183.133C52.0674 182.842 52.1687 182.664 52.3714 182.601L54.8604 181.784L52.3904 172.911C52.3271 172.696 52.2954 172.569 52.2954 172.531C52.2954 172.43 52.3334 172.341 52.4094 172.265C52.4854 172.189 52.5741 172.151 52.6754 172.151H53.5494C53.6634 172.151 53.7584 172.183 53.8344 172.246C53.9104 172.297 53.9611 172.36 53.9864 172.436L56.4184 181.252C57.4191 180.897 58.1157 180.397 58.5084 179.751C58.9137 179.105 59.1164 178.294 59.1164 177.319V172.588C59.1164 172.461 59.1544 172.36 59.2304 172.284C59.3191 172.195 59.4267 172.151 59.5534 172.151H60.3514ZM75.9373 183C75.8107 183 75.703 182.962 75.6143 182.886C75.5383 182.797 75.5003 182.69 75.5003 182.563V176.882C75.5003 174.703 74.4173 173.614 72.2513 173.614H68.7173C68.5907 173.614 68.483 173.576 68.3943 173.5C68.3183 173.424 68.2803 173.323 68.2803 173.196V172.588C68.2803 172.461 68.3183 172.36 68.3943 172.284C68.483 172.195 68.5907 172.151 68.7173 172.151H72.3463C75.5637 172.151 77.1723 173.709 77.1723 176.825V182.563C77.1723 182.69 77.1343 182.797 77.0583 182.886C76.9823 182.962 76.881 183 76.7543 183H75.9373ZM68.7173 183C68.5907 183 68.483 182.962 68.3943 182.886C68.3183 182.797 68.2803 182.69 68.2803 182.563V176.179C68.2803 176.052 68.3183 175.951 68.3943 175.875C68.483 175.786 68.5907 175.742 68.7173 175.742H69.5153C69.642 175.742 69.7433 175.786 69.8193 175.875C69.908 175.951 69.9523 176.052 69.9523 176.179V182.563C69.9523 182.69 69.908 182.797 69.8193 182.886C69.7433 182.962 69.642 183 69.5153 183H68.7173ZM80.4625 183C80.3358 183 80.2281 182.962 80.1395 182.886C80.0635 182.797 80.0255 182.69 80.0255 182.563V172.588C80.0255 172.461 80.0635 172.36 80.1395 172.284C80.2281 172.195 80.3358 172.151 80.4625 172.151H81.2985C81.4251 172.151 81.5265 172.195 81.6025 172.284C81.6911 172.36 81.7355 172.461 81.7355 172.588V182.563C81.7355 182.69 81.6911 182.797 81.6025 182.886C81.5265 182.962 81.4251 183 81.2985 183H80.4625ZM85.1197 183C84.993 183 84.8854 182.962 84.7967 182.886C84.7207 182.797 84.6827 182.69 84.6827 182.563V172.588C84.6827 172.461 84.7207 172.36 84.7967 172.284C84.8854 172.195 84.993 172.151 85.1197 172.151H85.9557C86.0824 172.151 86.1837 172.195 86.2597 172.284C86.3484 172.36 86.3927 172.461 86.3927 172.588V182.563C86.3927 182.69 86.3484 182.797 86.2597 182.886C86.1837 182.962 86.0824 183 85.9557 183H85.1197ZM96.9969 183C96.8702 183 96.7626 182.962 96.6739 182.886C96.5979 182.797 96.5599 182.69 96.5599 182.563V176.882C96.5599 174.703 95.4769 173.614 93.3109 173.614H89.7769C89.6502 173.614 89.5426 173.576 89.4539 173.5C89.3779 173.424 89.3399 173.323 89.3399 173.196V172.588C89.3399 172.461 89.3779 172.36 89.4539 172.284C89.5426 172.195 89.6502 172.151 89.7769 172.151H93.4059C96.6232 172.151 98.2319 173.709 98.2319 176.825V182.563C98.2319 182.69 98.1939 182.797 98.1179 182.886C98.0419 182.962 97.9406 183 97.8139 183H96.9969ZM89.7769 183C89.6502 183 89.5426 182.962 89.4539 182.886C89.3779 182.797 89.3399 182.69 89.3399 182.563V176.179C89.3399 176.052 89.3779 175.951 89.4539 175.875C89.5426 175.786 89.6502 175.742 89.7769 175.742H90.5749C90.7016 175.742 90.8029 175.786 90.8789 175.875C90.9676 175.951 91.0119 176.052 91.0119 176.179V182.563C91.0119 182.69 90.9676 182.797 90.8789 182.886C90.8029 182.962 90.7016 183 90.5749 183H89.7769ZM105.968 172.151C106.753 172.151 107.45 172.341 108.058 172.721C108.679 173.088 109.16 173.62 109.502 174.317C109.857 175.014 110.034 175.837 110.034 176.787V182.563C110.034 182.69 109.99 182.797 109.901 182.886C109.825 182.962 109.724 183 109.597 183H104.695C104.568 183 104.461 182.962 104.372 182.886C104.296 182.797 104.258 182.69 104.258 182.563V181.955C104.258 181.828 104.296 181.727 104.372 181.651C104.461 181.562 104.568 181.518 104.695 181.518H108.362V176.901C108.362 175.938 108.115 175.159 107.621 174.564C107.14 173.956 106.525 173.652 105.778 173.652H103.783L102.301 182.544C102.288 182.671 102.238 182.778 102.149 182.867C102.06 182.956 101.953 183 101.826 183H101.028C100.901 183 100.8 182.956 100.724 182.867C100.661 182.778 100.635 182.671 100.648 182.544L102.168 173.652H101.199C101.072 173.652 100.965 173.614 100.876 173.538C100.8 173.449 100.762 173.342 100.762 173.215V172.588C100.762 172.461 100.8 172.36 100.876 172.284C100.965 172.195 101.072 172.151 101.199 172.151H105.968ZM123.68 183C123.554 183 123.446 182.962 123.357 182.886C123.281 182.797 123.243 182.69 123.243 182.563V176.882C123.243 174.703 122.154 173.614 119.975 173.614H117.524C117.398 173.614 117.29 173.576 117.201 173.5C117.125 173.424 117.087 173.323 117.087 173.196V172.588C117.087 172.461 117.125 172.36 117.201 172.284C117.29 172.195 117.398 172.151 117.524 172.151H120.089C123.307 172.151 124.915 173.696 124.915 176.787V182.563C124.915 182.69 124.871 182.797 124.782 182.886C124.706 182.962 124.605 183 124.478 183H123.68ZM128.204 183C128.077 183 127.969 182.962 127.881 182.886C127.805 182.797 127.767 182.69 127.767 182.563V172.588C127.767 172.461 127.805 172.36 127.881 172.284C127.969 172.195 128.077 172.151 128.204 172.151H129.04C129.166 172.151 129.268 172.195 129.344 172.284C129.432 172.36 129.477 172.461 129.477 172.588V182.563C129.477 182.69 129.432 182.797 129.344 182.886C129.268 182.962 129.166 183 129.04 183H128.204ZM137.307 172.151C138.092 172.151 138.789 172.341 139.397 172.721C140.018 173.088 140.499 173.62 140.841 174.317C141.196 175.014 141.373 175.837 141.373 176.787V182.563C141.373 182.69 141.329 182.797 141.24 182.886C141.164 182.962 141.063 183 140.936 183H136.034C135.907 183 135.8 182.962 135.711 182.886C135.635 182.797 135.597 182.69 135.597 182.563V181.955C135.597 181.828 135.635 181.727 135.711 181.651C135.8 181.562 135.907 181.518 136.034 181.518H139.701V176.901C139.701 175.938 139.454 175.159 138.96 174.564C138.479 173.956 137.864 173.652 137.117 173.652H135.122L133.64 182.544C133.627 182.671 133.577 182.778 133.488 182.867C133.399 182.956 133.292 183 133.165 183H132.367C132.24 183 132.139 182.956 132.063 182.867C132 182.778 131.974 182.671 131.987 182.544L133.507 173.652H132.538C132.411 173.652 132.304 173.614 132.215 173.538C132.139 173.449 132.101 173.342 132.101 173.215V172.588C132.101 172.461 132.139 172.36 132.215 172.284C132.304 172.195 132.411 172.151 132.538 172.151H137.307ZM152.718 182.259C152.806 182.373 152.851 182.493 152.851 182.62C152.851 182.721 152.813 182.81 152.737 182.886C152.661 182.962 152.572 183 152.471 183H151.616C151.451 183 151.324 182.956 151.236 182.867C151.147 182.766 151.096 182.709 151.084 182.696L146.752 176.597C146.207 177.002 145.833 177.471 145.631 178.003C145.441 178.535 145.346 179.124 145.346 179.77V182.563C145.346 182.69 145.301 182.797 145.213 182.886C145.137 182.962 145.035 183 144.909 183H144.206C144.079 183 143.971 182.962 143.883 182.886C143.807 182.797 143.769 182.69 143.769 182.563V179.694C143.769 178.757 143.908 177.94 144.187 177.243C144.478 176.546 145.042 175.919 145.878 175.362L144.111 172.892C144.022 172.753 143.978 172.632 143.978 172.531C143.978 172.43 144.016 172.341 144.092 172.265C144.168 172.189 144.256 172.151 144.358 172.151H145.194C145.396 172.151 145.574 172.259 145.726 172.474L149.716 178.041C150.172 177.775 150.501 177.496 150.704 177.205C150.919 176.914 151.052 176.629 151.103 176.35C151.153 176.059 151.179 175.685 151.179 175.229V172.588C151.179 172.461 151.217 172.36 151.293 172.284C151.381 172.195 151.489 172.151 151.616 172.151H152.357C152.483 172.151 152.585 172.195 152.661 172.284C152.749 172.36 152.794 172.461 152.794 172.588V175.305C152.794 176.179 152.648 176.92 152.357 177.528C152.065 178.136 151.47 178.706 150.571 179.238L152.718 182.259ZM155.794 183C155.668 183 155.56 182.962 155.471 182.886C155.395 182.797 155.357 182.69 155.357 182.563V181.936C155.357 181.809 155.395 181.708 155.471 181.632C155.56 181.543 155.668 181.499 155.794 181.499H158.511C159.613 181.499 160.424 181.22 160.943 180.663C161.463 180.106 161.748 179.295 161.798 178.231C161.811 178.054 161.817 177.832 161.817 177.566C161.817 177.313 161.811 177.097 161.798 176.92C161.76 175.843 161.475 175.033 160.943 174.488C160.424 173.931 159.613 173.652 158.511 173.652H155.794C155.668 173.652 155.56 173.614 155.471 173.538C155.395 173.449 155.357 173.342 155.357 173.215V172.588C155.357 172.461 155.395 172.36 155.471 172.284C155.56 172.195 155.668 172.151 155.794 172.151H158.606C160.228 172.151 161.425 172.556 162.197 173.367C162.97 174.165 163.382 175.324 163.432 176.844C163.445 177.021 163.451 177.262 163.451 177.566C163.451 177.87 163.445 178.117 163.432 178.307C163.382 179.827 162.97 180.992 162.197 181.803C161.425 182.601 160.228 183 158.606 183H155.794ZM24.6413 199.196C24.6286 199.361 24.5716 199.494 24.4703 199.595C24.3689 199.684 24.2486 199.728 24.1093 199.728H23.8053C23.6659 199.728 23.5456 199.684 23.4443 199.595C23.3429 199.494 23.2859 199.361 23.2733 199.196L22.9313 196.194C22.9059 195.991 22.9376 195.827 23.0263 195.7C23.1149 195.573 23.2543 195.51 23.4443 195.51H24.4703C24.6603 195.51 24.7996 195.573 24.8883 195.7C24.9769 195.827 25.0086 195.991 24.9833 196.194L24.6413 199.196ZM27.6433 199.196C27.6306 199.361 27.5736 199.494 27.4723 199.595C27.3709 199.684 27.2506 199.728 27.1113 199.728H26.8073C26.6679 199.728 26.5476 199.684 26.4463 199.595C26.3449 199.494 26.2879 199.361 26.2753 199.196L25.9333 196.194C25.9079 195.991 25.9396 195.827 26.0283 195.7C26.1169 195.573 26.2563 195.51 26.4463 195.51H27.4723C27.6623 195.51 27.8016 195.573 27.8903 195.7C27.9789 195.827 28.0106 195.991 27.9853 196.194L27.6433 199.196ZM38.9867 208.259C39.0754 208.373 39.1197 208.493 39.1197 208.62C39.1197 208.721 39.0817 208.81 39.0057 208.886C38.9297 208.962 38.8411 209 38.7397 209H37.8847C37.7201 209 37.5934 208.956 37.5047 208.867C37.4161 208.766 37.3654 208.709 37.3527 208.696L33.0207 202.597C32.4761 203.002 32.1024 203.471 31.8997 204.003C31.7097 204.535 31.6147 205.124 31.6147 205.77V208.563C31.6147 208.69 31.5704 208.797 31.4817 208.886C31.4057 208.962 31.3044 209 31.1777 209H30.4747C30.3481 209 30.2404 208.962 30.1517 208.886C30.0757 208.797 30.0377 208.69 30.0377 208.563V205.694C30.0377 204.757 30.1771 203.94 30.4557 203.243C30.7471 202.546 31.3107 201.919 32.1467 201.362L30.3797 198.892C30.2911 198.753 30.2467 198.632 30.2467 198.531C30.2467 198.43 30.2847 198.341 30.3607 198.265C30.4367 198.189 30.5254 198.151 30.6267 198.151H31.4627C31.6654 198.151 31.8427 198.259 31.9947 198.474L35.9847 204.041C36.4407 203.775 36.7701 203.496 36.9727 203.205C37.1881 202.914 37.3211 202.629 37.3717 202.35C37.4224 202.059 37.4477 201.685 37.4477 201.229V198.588C37.4477 198.461 37.4857 198.36 37.5617 198.284C37.6504 198.195 37.7581 198.151 37.8847 198.151H38.6257C38.7524 198.151 38.8537 198.195 38.9297 198.284C39.0184 198.36 39.0627 198.461 39.0627 198.588V201.305C39.0627 202.179 38.9171 202.92 38.6257 203.528C38.3344 204.136 37.7391 204.706 36.8397 205.238L38.9867 208.259ZM41.5885 209C41.4619 209 41.3542 208.962 41.2655 208.886C41.1895 208.797 41.1515 208.69 41.1515 208.563V207.955C41.1515 207.828 41.1895 207.727 41.2655 207.651C41.3542 207.562 41.4619 207.518 41.5885 207.518H47.0605V202.882C47.0605 200.716 45.9775 199.633 43.8115 199.633H41.7785C41.6519 199.633 41.5442 199.595 41.4555 199.519C41.3795 199.43 41.3415 199.323 41.3415 199.196V198.588C41.3415 198.461 41.3795 198.36 41.4555 198.284C41.5442 198.195 41.6519 198.151 41.7785 198.151H43.9065C45.5279 198.151 46.7439 198.544 47.5545 199.329C48.3652 200.114 48.7705 201.273 48.7705 202.806V207.518H49.4735C49.6002 207.518 49.7015 207.562 49.7775 207.651C49.8662 207.727 49.9105 207.828 49.9105 207.955V208.563C49.9105 208.69 49.8662 208.797 49.7775 208.886C49.7015 208.962 49.6002 209 49.4735 209H41.5885ZM59.4099 200.45C59.4099 201.438 59.2073 202.28 58.8019 202.977C58.4093 203.661 57.8203 204.187 57.0349 204.554L59.0109 207.404C59.1629 207.594 59.2389 207.784 59.2389 207.974V208.563C59.2389 208.69 59.1946 208.797 59.1059 208.886C59.0299 208.962 58.9286 209 58.8019 209H51.9619C51.8353 209 51.7276 208.962 51.6389 208.886C51.5629 208.797 51.5249 208.69 51.5249 208.563V207.955C51.5249 207.816 51.5629 207.708 51.6389 207.632C51.7276 207.556 51.8353 207.518 51.9619 207.518H57.1299L51.1829 198.892C51.0816 198.753 51.0309 198.632 51.0309 198.531C51.0309 198.43 51.0689 198.341 51.1449 198.265C51.2336 198.189 51.3286 198.151 51.4299 198.151H52.2849C52.4876 198.151 52.6586 198.252 52.7979 198.455L56.1989 203.357C57.2756 202.85 57.8139 201.812 57.8139 200.241V198.588C57.8139 198.449 57.8519 198.341 57.9279 198.265C58.0166 198.189 58.1243 198.151 58.2509 198.151H58.9919C59.1186 198.151 59.2199 198.195 59.2959 198.284C59.3719 198.36 59.4099 198.461 59.4099 198.588V200.45ZM69.6937 209C69.567 209 69.4594 208.962 69.3707 208.886C69.2947 208.797 69.2567 208.69 69.2567 208.563V202.882C69.2567 200.703 68.1737 199.614 66.0077 199.614H62.4737C62.347 199.614 62.2394 199.576 62.1507 199.5C62.0747 199.424 62.0367 199.323 62.0367 199.196V198.588C62.0367 198.461 62.0747 198.36 62.1507 198.284C62.2394 198.195 62.347 198.151 62.4737 198.151H66.1027C69.32 198.151 70.9287 199.709 70.9287 202.825V208.563C70.9287 208.69 70.8907 208.797 70.8147 208.886C70.7387 208.962 70.6374 209 70.5107 209H69.6937ZM62.4737 209C62.347 209 62.2394 208.962 62.1507 208.886C62.0747 208.797 62.0367 208.69 62.0367 208.563V202.179C62.0367 202.052 62.0747 201.951 62.1507 201.875C62.2394 201.786 62.347 201.742 62.4737 201.742H63.2717C63.3984 201.742 63.4997 201.786 63.5757 201.875C63.6644 201.951 63.7087 202.052 63.7087 202.179V208.563C63.7087 208.69 63.6644 208.797 63.5757 208.886C63.4997 208.962 63.3984 209 63.2717 209H62.4737ZM83.2465 198.151C86.4638 198.151 88.0725 199.696 88.0725 202.787V208.563C88.0725 208.69 88.0281 208.797 87.9395 208.886C87.8635 208.962 87.7621 209 87.6355 209H86.8375C86.7108 209 86.6031 208.962 86.5145 208.886C86.4385 208.797 86.4005 208.69 86.4005 208.563V202.882C86.4005 200.703 85.3175 199.614 83.1515 199.614H81.7645C81.6378 200.349 81.5428 200.988 81.4795 201.533C81.4288 202.078 81.4035 202.698 81.4035 203.395L81.4415 208.563C81.4415 208.69 81.4035 208.797 81.3275 208.886C81.2515 208.962 81.1501 209 81.0235 209L78.3825 208.962C78.2558 208.962 78.1481 208.924 78.0595 208.848C77.9835 208.759 77.9455 208.652 77.9455 208.525V207.955C77.9455 207.828 77.9835 207.727 78.0595 207.651C78.1481 207.562 78.2558 207.518 78.3825 207.518L79.8265 207.537V203.471C79.8265 202.66 79.8455 201.983 79.8835 201.438C79.9341 200.893 80.0355 200.285 80.1875 199.614H79.1805C79.0538 199.614 78.9461 199.576 78.8575 199.5C78.7815 199.424 78.7435 199.323 78.7435 199.196V198.588C78.7435 198.461 78.7815 198.36 78.8575 198.284C78.9461 198.195 79.0538 198.151 79.1805 198.151H83.2465ZM91.3633 209C91.2367 209 91.129 208.962 91.0403 208.886C90.9643 208.797 90.9263 208.69 90.9263 208.563V198.588C90.9263 198.461 90.9643 198.36 91.0403 198.284C91.129 198.195 91.2367 198.151 91.3633 198.151H92.1993C92.326 198.151 92.4273 198.195 92.5033 198.284C92.592 198.36 92.6363 198.461 92.6363 198.588V208.563C92.6363 208.69 92.592 208.797 92.5033 208.886C92.4273 208.962 92.326 209 92.1993 209H91.3633ZM103.374 198.151C103.5 198.151 103.602 198.195 103.678 198.284C103.766 198.36 103.811 198.461 103.811 198.588V199.196C103.811 199.323 103.766 199.424 103.678 199.5C103.602 199.576 103.5 199.614 103.374 199.614H102.253C102.075 199.804 101.93 200.102 101.816 200.507C101.714 200.912 101.664 201.368 101.664 201.875V208.582C101.664 208.709 101.619 208.81 101.531 208.886C101.442 208.962 101.334 209 101.208 209H100.41C100.283 209 100.182 208.962 100.106 208.886C100.03 208.81 99.9916 208.709 99.9916 208.582V201.761C99.9916 201.242 100.036 200.798 100.125 200.431C100.213 200.064 100.334 199.791 100.486 199.614H95.2416C95.1149 199.614 95.0072 199.576 94.9186 199.5C94.8426 199.424 94.8046 199.323 94.8046 199.196V198.588C94.8046 198.461 94.8426 198.36 94.9186 198.284C95.0072 198.195 95.1149 198.151 95.2416 198.151H103.374ZM106.597 209C106.47 209 106.362 208.962 106.274 208.886C106.198 208.797 106.16 208.69 106.16 208.563V198.588C106.16 198.461 106.198 198.36 106.274 198.284C106.362 198.195 106.47 198.151 106.597 198.151H107.433C107.559 198.151 107.661 198.195 107.737 198.284C107.825 198.36 107.87 198.461 107.87 198.588V208.563C107.87 208.69 107.825 208.797 107.737 208.886C107.661 208.962 107.559 209 107.433 209H106.597ZM114.864 209.171C114.839 209.184 114.794 209.19 114.731 209.19C114.642 209.19 114.56 209.158 114.484 209.095C114.421 209.032 114.389 208.943 114.389 208.829V207.993C114.389 207.892 114.427 207.797 114.503 207.708C114.579 207.607 114.68 207.531 114.807 207.48L115.548 207.195C116.422 206.866 117.093 206.391 117.562 205.77C118.031 205.149 118.265 204.237 118.265 203.034C118.265 202.185 118.164 201.52 117.961 201.039C117.758 200.545 117.423 200.19 116.954 199.975C116.498 199.76 115.865 199.652 115.054 199.652H111.254C111.127 199.652 111.02 199.614 110.931 199.538C110.855 199.449 110.817 199.342 110.817 199.215V198.569C110.817 198.442 110.855 198.341 110.931 198.265C111.02 198.189 111.127 198.151 111.254 198.151H115.301C116.454 198.151 117.366 198.316 118.037 198.645C118.721 198.974 119.215 199.5 119.519 200.222C119.823 200.944 119.975 201.907 119.975 203.11C119.975 204.731 119.576 205.998 118.778 206.91C117.98 207.809 116.941 208.474 115.662 208.905L114.864 209.171ZM111.254 212.629C111.127 212.629 111.02 212.585 110.931 212.496C110.855 212.42 110.817 212.319 110.817 212.192V202.179C110.817 202.052 110.855 201.951 110.931 201.875C111.02 201.786 111.127 201.742 111.254 201.742H112.033C112.16 201.742 112.261 201.786 112.337 201.875C112.426 201.951 112.47 202.052 112.47 202.179V212.192C112.47 212.331 112.432 212.439 112.356 212.515C112.28 212.591 112.172 212.629 112.033 212.629H111.254ZM124.174 201.172C124.187 201.679 124.25 202.078 124.364 202.369C124.478 202.66 124.668 202.844 124.934 202.92L125.656 203.11C125.758 203.135 125.834 203.205 125.884 203.319C125.948 203.42 125.979 203.547 125.979 203.699V204.136C125.979 204.275 125.91 204.377 125.77 204.44C125.631 204.503 125.479 204.522 125.314 204.497L124.592 204.345C123.313 204.066 122.673 202.99 122.673 201.115V198.588C122.686 198.449 122.73 198.341 122.806 198.265C122.882 198.189 122.984 198.151 123.11 198.151H126.625C128.019 198.151 129.076 198.563 129.798 199.386C130.52 200.197 130.9 201.349 130.938 202.844C130.951 202.971 130.957 203.211 130.957 203.566C130.957 203.933 130.951 204.18 130.938 204.307C130.9 205.802 130.52 206.961 129.798 207.784C129.076 208.595 128.019 209 126.625 209H123.357C123.231 209 123.123 208.962 123.034 208.886C122.958 208.797 122.92 208.69 122.92 208.563V207.936C122.92 207.797 122.958 207.689 123.034 207.613C123.123 207.537 123.231 207.499 123.357 207.499H126.511C127.398 207.499 128.082 207.214 128.563 206.644C129.045 206.074 129.304 205.27 129.342 204.231C129.368 203.978 129.38 203.756 129.38 203.566C129.38 203.389 129.368 203.173 129.342 202.92C129.317 201.869 129.064 201.064 128.582 200.507C128.101 199.937 127.411 199.652 126.511 199.652H124.174V201.172ZM140.439 198.151C141.592 198.151 142.504 198.316 143.175 198.645C143.859 198.974 144.353 199.5 144.657 200.222C144.961 200.944 145.113 201.907 145.113 203.11C145.113 204.731 144.714 205.998 143.916 206.91C143.118 207.809 142.079 208.474 140.8 208.905L140.002 209.171C139.977 209.184 139.932 209.19 139.869 209.19C139.78 209.19 139.698 209.158 139.622 209.095C139.559 209.032 139.527 208.943 139.527 208.829V207.993C139.527 207.892 139.565 207.797 139.641 207.708C139.717 207.607 139.818 207.531 139.945 207.48L140.686 207.195C141.56 206.866 142.231 206.391 142.7 205.77C143.169 205.149 143.403 204.237 143.403 203.034C143.403 202.185 143.302 201.52 143.099 201.039C142.896 200.545 142.561 200.19 142.092 199.975C141.636 199.76 141.003 199.652 140.192 199.652H139.603H139.546L137.798 199.633C137.671 199.633 137.564 199.595 137.475 199.519C137.399 199.443 137.361 199.342 137.361 199.215V195.947C137.361 195.82 137.399 195.719 137.475 195.643C137.564 195.554 137.671 195.51 137.798 195.51H138.558C138.685 195.51 138.786 195.554 138.862 195.643C138.938 195.719 138.976 195.82 138.976 195.947V198.151H140.059H140.439ZM155.286 198.151C155.426 198.151 155.533 198.189 155.609 198.265C155.685 198.341 155.723 198.449 155.723 198.588V203.832C155.723 204.947 155.356 205.954 154.621 206.853C153.899 207.74 152.918 208.367 151.676 208.734L147.534 210.045C147.496 210.058 147.446 210.064 147.382 210.064C147.281 210.064 147.192 210.032 147.116 209.969C147.04 209.906 147.002 209.823 147.002 209.722V209.133C147.002 208.842 147.104 208.664 147.306 208.601L149.795 207.784L147.325 198.911C147.262 198.696 147.23 198.569 147.23 198.531C147.23 198.43 147.268 198.341 147.344 198.265C147.42 198.189 147.509 198.151 147.61 198.151H148.484C148.598 198.151 148.693 198.183 148.769 198.246C148.845 198.297 148.896 198.36 148.921 198.436L151.353 207.252C152.354 206.897 153.051 206.397 153.443 205.751C153.849 205.105 154.051 204.294 154.051 203.319V198.588C154.051 198.461 154.089 198.36 154.165 198.284C154.254 198.195 154.362 198.151 154.488 198.151H155.286Z" fill="white"/>
</svg>
